<svg enable-background="new 0 0 330 303" viewBox="0 0 330 303" xmlns="http://www.w3.org/2000/svg" xmlns:xlink="http://www.w3.org/1999/xlink"><mask id="a" height="287.9" maskUnits="userSpaceOnUse" width="329.8" x="0" y="0"><path clip-rule="evenodd" d="m0 0h329.8v287.9h-329.8z" fill="#fff" fill-rule="evenodd"/></mask><g clip-rule="evenodd" fill="#e2d3f5" fill-rule="evenodd"><path d="m83.8 282.6c-40.4-13.6-75.5-47.4-82.6-89.3s19.3-89.2 61-98.2c19.7-4.3 40.9-.5 59.8-7.7 35.5-13.6 47.5-59.6 80.3-78.8 31.6-18.5 74.9-5.2 98.4 22.8s30.4 66.6 29 103.1c-2.1 53.6-25 111.5-73.7 134.1-41.3 19.2-128.1 24.6-172.2 14" mask="url(#a)"/><path d="m109.6 5.6c-6.1 2.1-11.1 7.3-13.3 13.6s-1.6 13.7 1.7 19.5c6.1 11.3 22 14.9 32.1 7.3 10-7.5 12-24.5 3.9-34.4-8.1-9.8-24.3-10.3-32.9-.9"/></g><path d="m155.7 290.8c-29.9 0-61.8-13.6-88.6-37.9-20.3-18.5-35.3-39.2-43.2-59.9-9.5-24.8-9-49.1 1.4-72.3 5.4-11.9 13.7-23.1 24.2-32.3 10.3-9.1 22.5-16.1 35.1-20.3 22.1-7.3 44.5-5.7 63.1 4.6 1.4.8 2.8 1.6 4.2 2.5l2.7 1.8c.5.4 1.1.8 1.6 1.2 2.5 1.8 6.4 4.8 9.8 8.5.5-.3 1.1-.7 1.6-1 15.7-9.8 32.8-14.9 49.4-14.9h.7c23.3.2 45.6 12.4 59.7 32.6 8.9 12.8 13.9 29.1 14.3 47.2.4 16.2-2.8 33.6-9.1 48.9l-.7-.3.7.3c-9.2 22.7-26.4 44.5-48.4 61.5-22.7 17.5-48.4 28-72.4 29.6-1.9.2-4 .2-6.1.2zm-43.9-225.8c-8.8 0-17.7 1.5-26.7 4.4-12.5 4.1-24.5 11.1-34.7 20.1-10.3 9.1-18.5 20.1-23.8 31.8-10.3 22.8-10.7 46.7-1.4 71.2 7.8 20.5 22.7 41 42.8 59.3 26.5 24.1 58.1 37.5 87.6 37.5 2.1 0 4.1-.1 6.1-.2 23.7-1.5 49.1-11.9 71.6-29.3 21.8-16.8 38.8-38.4 48-60.9 6.2-15.2 9.4-32.4 8.9-48.4-.5-17.8-5.4-33.9-14.1-46.4-13.8-19.8-35.7-31.8-58.5-32-16.6-.2-33.7 4.9-49.3 14.7-.4.3-.9.5-1.4.8 3.6 4.3 6.2 9.4 5 14.9-.9 4.3-4.3 7.7-8.3 8.3-2.3.3-4.8-.4-6.8-2.1s-3.1-4-3.2-6.3c-.2-6.8 6-11.7 11.1-15.1-3.3-3.5-7.1-6.4-9.5-8.2-.5-.4-1-.8-1.6-1.1-.9-.6-1.8-1.2-2.6-1.8-1.4-.9-2.7-1.7-4.1-2.5-10.6-5.7-22.6-8.7-35.1-8.7zm54 23.6c-4.8 3.2-10.7 7.8-10.6 14 0 1.9 1 3.9 2.7 5.3s3.7 2 5.6 1.8c3.3-.5 6.2-3.4 7.1-7.2 1.1-5.1-1.4-9.8-4.8-13.9z" fill="#fff"/><path d="m46.9 237c-2.3-2.9-5.1-5.5-8.1-7.2-5-2.9-11.7-1-12.3 5.3-1 9.9 11.6 17.9 19.2 21.5 1.4.6 2.8 1.2 4.3 1.1 3.3-.2 4.2-3.9 3.7-6.7-.9-4.9-3.7-10.1-6.8-14z" fill="#cd82f1"/><path d="m27.8 223.1c2.3-.9 3.6-3.9 2.5-6.1-1.9-4.1-6.7-4.9-8.5-.2-1.3 3.6 2 7.8 6 6.3z" fill="#e6f5ff"/><path d="m280 239.9c-1.8-5.8-11.2-7.8-14.9-2.9-5.1 6.9 1.8 16.3 9.8 12.9 3.7-1.5 6.3-6 5.1-10z" fill="#7bb7f0"/><path d="m277.2 113.3c-3.4-7.4-11.7-12.3-18.7-6.1-7.9 6.9-2.1 19.8 4.9 25 3 2.3 7.3 3.6 10.6 1.7 2.4-1.4 3.7-4.1 4.4-6.8 1.1-4.6.8-9.5-1.2-13.8z" fill="#e6f5ff"/><path d="m288.3 96c1-3.4-.1-7.6-4.4-8.4-6.5-1.1-9.4 6.5-4.8 10.6 4.5 4.2 8.1 1.5 9.2-2.2z" fill="#e6f5ff"/><path d="m111.1 84.9c2.5-1.8 4.1-4.2 3.2-7.7-2.3-9.1-19.9-6.6-26.3-4.5-7.2 2.3-20.8 8.3-23.2 16.6-.7 2.3.1 5 2 6.5 4.1 3.5 10.8 1 15.2-.6 5.8-2.2 11.7-4.5 17.8-6 3.2-.8 8.1-2 11.3-4.3z" fill="#cd82f1"/><path d="m50.4 106.5c-4-2.5-1.9-8.8 2.2-10 10-2.8 6.6 15.5-2.2 10z" fill="#7bb7f0"/><path d="m279.7 220.1c10.7-15.2 17.3-33 19-51.5.1-.9-1.4-.9-1.5 0-1.7 18.3-8.2 35.8-18.8 50.7-.5.8.8 1.6 1.3.8z" fill="#fff"/><path d="m186.6 72.9c10.2-4.4 21.2-6.3 32.2-5.7.9.1.9-1.4 0-1.5-11.3-.6-22.5 1.4-32.9 5.9-.8.4-.1 1.6.7 1.3z" fill="#fff"/><path d="m18.7 198c-7.7-17.9-10.1-37.7-6.9-56.9.2-.9-1.2-1.3-1.4-.4-3.2 19.6-.8 39.7 7 58 .4.9 1.7.1 1.3-.7z" fill="#fff"/><path d="m155 288.4c2.1-.2 4.3-.4 6.4-.6-.3-9.7-1.2-38.1-2.9-44.5l-50.3 1.7c-5.2 8.1-3.8 30.9-2.9 41.1h.2c8.1.3 16.1 1.5 24.2 1.9 8.5.5 16.9-.1 25.3.4z" fill="#231e31"/><path d="m99.5 184.6s-2 2.7-3.2 2.8c-1.3 0-8.2-9.7-8.5-10.6-.4-.8 2.7-2.8 2.7-2.8z" fill="#6b37c8"/><path d="m201.9 161.2c-32.8-9.1-72.8-7.8-89.7-2.3s-22.7 11.2-21.8 15l5.3 9.6s60-7.8 83.7-1.2z" fill="#9057ec"/><path d="m153.5 168.3c9 4.1 25 16 25 16l-5.8 21.3-15.2-7.5-6-27.6z" fill="#c75e21"/><path d="m108.9 239.8-.3 6.6 53-1.7-.5-5.9z" fill="#231e31"/><path d="m160.9 233-3.4-34.9-4-29.8c-8-3.6-13.1-5.9-28.8-5.6 0 0-12.2 2.3-20.8 9 0 0 1.6 11.7 1.3 25.4-.4 18.6-2.3 40.9 3.7 42.6l52.2-1c0 .1-.2-2.5-.2-5.7z" fill="#c75e21"/><path d="m104.9 206.2c-.2 5.9-.4 11.8-.3 16.9l3.9-22.5z" fill="#231e31"/><path d="m147.5 123.4s4.5-3.3 7.7-1.1c3.2 2.1-2.5 19.2-2.5 19.2h-1.6z" fill="#181843"/><path d="m149.3 141.6s7.6-3.6 8 3.1c.4 7.4-9.2 3.9-9.2 3.9z" fill="#f39e6e"/><path d="m124.5 161.1c-5 .3-4.6 4.2-4.7 6.2-.1 3.5 2.4 12 5.6 11.3s7-5.5 7-5.5 5 6 7.9 4.6 1.5-14-3.9-15.8c-5.3-1.7-11.9-.8-11.9-.8z" fill="#fff"/><path d="m123.4 165-.9-20s-8 1.6-7.8-4.7c.2-5.6 6.3-5.2 8.9-2.2 0 0-2.6-20.2 14.4-19.4 17 .7 14.1 23.8 13.4 29.4-1.2 9.8-8.9 13.6-14.1 13.4l-.4 6.1s-.3 5.3-5.3 4.9c-6.5-.8-8.2-7.5-8.2-7.5z" fill="#f39e6e"/><path d="m123 137.3s2.5 1.6 2.3 6.2l1.4.4.6-9.2s3.9-1.6 4.8-7.8l-14.3-2.2s.3 6.3 2 11.2c0 0 1.8.3 3.2 1.4z" fill="#181843"/><path d="m133.9 138.7c-.3 1 .3 2 1.3 2.3s2-.3 2.3-1.3-.3-2-1.3-2.3-2 .3-2.3 1.3z" fill="#181843"/><path d="m142.9 139.6c-.3 1 .3 2 1.3 2.3s2-.3 2.3-1.3-.3-2-1.3-2.3c-1-.2-2 .4-2.3 1.3z" fill="#181843"/><path d="m141.7 145.9c-.5 0-.9-.2-.9-.2-.2-.1-.3-.4-.2-.6s.4-.3.6-.2.6.2.7.1c0 0 .5-.6-1.1-4-.1-.2 0-.5.2-.6s.5 0 .6.2c1.4 2.8 1.6 4.3.9 5-.2.2-.5.3-.8.3z" fill="#181843"/><path d="m140.7 149.1c-1.7-.3-3.2-1.2-4.2-2.5-.2-.2-.1-.5.1-.7s.5-.1.7.1c.8 1.1 2.1 1.9 3.5 2.2.3 0 .4.3.4.6-.1.2-.3.3-.5.3z" fill="#181843"/><path d="m121.8 142.3c-.3 0-.5-.2-.5-.5 0-.8-.3-1.7-1-2.2s-1.6-.7-2.4-.5c-.3.1-.5-.1-.6-.3-.1-.3.1-.5.3-.6 1.1-.3 2.3-.1 3.2.6s1.4 1.9 1.4 3c0 .3-.2.5-.4.5z" fill="#181843"/><path d="m119.6 141.4c-.1 0-.2 0-.3-.1-.2-.2-.2-.5 0-.7l1.3-1.3c.2-.2.5-.2.7 0s.2.5 0 .7l-1.3 1.3c-.2 0-.3.1-.4.1z" fill="#181843"/><path d="m139.1 135.1c-.1 0-.2 0-.3-.1-1.4-1-3.4-1.7-5.2-.5-.2.1-.5.1-.7-.1-.1-.2-.1-.5.1-.7 2.1-1.4 4.6-.6 6.2.6.2.2.3.5.1.7.1.1 0 .1-.2.1z" fill="#181843"/><path d="m148.5 136c-.1 0-.3-.1-.4-.2-1.1-1.3-3.3-1.6-4.7-.6-.2.2-.5.1-.7-.1s-.1-.5.1-.7c1.8-1.3 4.6-1 6 .7.2.2.1.5-.1.7 0 .1-.1.2-.2.2z" fill="#181843"/><path d="m137.5 161.4c-4.9-.4-9.3-4.7-9.3-4.7s3.1 6.1 9.1 7.7z" fill="#181843"/><path d="m134.7 144.8c-.6 1.3-2.2 1.9-3.5 1.3s-1.9-2.2-1.3-3.5 2.2-1.9 3.5-1.3c1.4.7 1.9 2.2 1.3 3.5z" fill="#e87555"/><path d="m150.2 147.7c-.6 1.3-2.2 1.9-3.5 1.3s-1.9-2.2-1.3-3.5 2.2-1.9 3.5-1.3 1.9 2.2 1.3 3.5z" fill="#e87555"/><path d="m129.4 145.2-5.6-7.2-.7-.7s2.8 1.7 7.7 8.2z" fill="#fff"/><path d="m122.6 145 3.8 6.2-.8.6-3.5-6.7z" fill="#fff"/><path d="m151.5 148s-7.2-3.1-9-3.4c-1.6-.3-11 .4-13.2.6-1.3 2.1-3.7 6.6-3.7 6.6 1.4 4.1 4.9 9.2 12 9.7 12.8 1 13.9-13.5 13.9-13.5z" fill="#7bb7f0"/><path d="m133.4 148.7c-.1 0-.2-.1-.2-.2 0-.2.1-.3.3-.4l.3-.1c.2 0 .3.1.4.3 0 .2-.1.3-.3.4l-.3.1c-.1-.1-.1-.1-.2-.1z" fill="#4d99e0"/><path d="m135.7 148.3c-.1 0-.2-.1-.2-.3s.1-.3.3-.4c.2 0 .5 0 .7-.1.2 0 .3.1.3.3s-.1.3-.3.3-.4 0-.7 0c0 .3-.1.3-.1.2zm2.7 0c-.1 0-.2-.2-.2-.3 0-.2.2-.3.3-.3h.7c.2 0 .3.2.3.3 0 .2-.2.3-.3.3-.3 0-.5 0-.8 0zm2.6.2c-.2 0-.3-.2-.2-.4 0-.2.2-.3.4-.3s.4.1.7.1c.2 0 .3.2.3.4s-.2.3-.4.3c-.3 0-.5-.1-.8-.1zm5.8 1.5c-.2-.1-.4-.2-.7-.3-.2-.1-.3-.3-.2-.4.1-.2.2-.2.4-.2.2.1.4.2.6.3s.2.3.2.4c0 .2-.1.3-.3.2zm-3.2-1c-.2 0-.3-.2-.2-.4 0-.2.2-.3.4-.2l.4.1.3.1c.2 0 .3.2.2.4 0 .2-.2.3-.4.2l-.3-.1z" fill="#4d99e0"/><path d="m148.9 151-.4-.2c-.2-.1-.2-.3-.1-.4.1-.2.3-.2.4-.1l.3.2c.2.1.2.3.1.4 0 .1-.1.2-.3.1z" fill="#4d99e0"/><path d="m133.3 151.4c-.1 0-.2-.2-.2-.3 0-.2.1-.3.3-.3h.3c.2 0 .3.1.3.3s-.1.3-.3.3h-.4c.1.1.1.1 0 0z" fill="#4d99e0"/><path d="m135.5 151.4c-.1 0-.2-.2-.2-.3 0-.2.1-.3.3-.3h.6c.2 0 .3.2.3.3 0 .2-.2.3-.3.3-.2 0-.4 0-.7 0zm2.4.1c-.1 0-.2-.2-.2-.3 0-.2.2-.3.3-.3.2 0 .4 0 .6.1.2 0 .3.2.3.4s-.2.3-.4.3c-.1-.1-.3-.1-.6-.2.1 0 .1 0 0 0zm2.5.3c-.2 0-.3-.2-.2-.4 0-.2.2-.3.4-.3s.4.1.6.1.3.2.3.4-.2.3-.4.3c-.3 0-.5-.1-.7-.1zm2.4.4c-.2 0-.3-.2-.2-.4 0-.2.2-.3.4-.2.2 0 .4.1.6.1s.3.2.2.4c0 .2-.2.3-.4.2-.2 0-.4 0-.6-.1zm2.9.8c-.2-.1-.4-.1-.6-.2-.2 0-.3-.2-.2-.4 0-.2.2-.3.4-.2.2.1.4.1.6.2s.3.2.2.4c0 .2-.2.3-.4.2z" fill="#4d99e0"/><path d="m147.8 153.7-.3-.1c-.2-.1-.3-.2-.2-.4s.2-.3.4-.2l.3.1c.2.1.3.2.2.4s-.3.2-.4.2z" fill="#4d99e0"/><path d="m134.5 154.7c-.1 0-.2-.2-.2-.3 0-.2.1-.3.3-.3h.3c.2 0 .3.1.3.3s-.1.3-.3.3h-.4c.1 0 .1 0 0 0z" fill="#4d99e0"/><path d="m137 154.8c-.1 0-.2-.2-.2-.3 0-.2.2-.3.3-.3.2 0 .5 0 .7.1.2 0 .3.2.3.4s-.2.3-.4.3c-.2-.2-.4-.2-.7-.2zm2.8.3c-.2 0-.3-.2-.2-.4 0-.2.2-.3.4-.3s.5.1.7.1.3.2.3.4-.2.3-.4.3c-.3 0-.5 0-.8-.1zm2.8.6c-.2 0-.3-.2-.2-.4 0-.2.2-.3.4-.2s.5.1.7.2c.2 0 .3.2.2.4 0 .2-.2.3-.4.2s-.4-.2-.7-.2z" fill="#4d99e0"/><path d="m145.7 156.6-.3-.1c-.2-.1-.3-.2-.2-.4s.2-.2.4-.2l.3.1c.2.1.3.2.2.4-.1.1-.3.2-.4.2z" fill="#4d99e0"/><path d="m111.3 125s27.7 5.9 34.9 2.3 6.6-12.2.3-16-14.5-.7-21.5 3.9c-7.6 5-13.7 9.8-13.7 9.8z" fill="#181843"/><path d="m151.9 146.5c-.1 0-.1 0-.2 0-.2-.1-.4-.4-.3-.6.4-1.2.6-2.4.5-3.6 0-.3.2-.5.4-.5.3 0 .5.2.5.4.1 1.4-.1 2.7-.6 4 0 .2-.1.3-.3.3z" fill="#181843"/><path d="m152.4 144.5c-.1 0-.2 0-.3-.1-.2-.2-.2-.5 0-.7.7-.7 1.7-1 2.6-.7.3.1.4.3.3.6s-.3.4-.6.3c-.6-.2-1.3 0-1.7.5 0 .1-.2.1-.3.1z" fill="#181843"/><path d="m218.1 227.6v.7c-18.8 7-35.2 2.7-40.7.8v-3h29.1z" fill="#b2684b"/><path d="m175.4 229.5c-11.9-1.9-1.1-32.7-1.1-32.7l.2-28.2c4.4-3.1 12.5-6.2 28.3-5.9 0 0 15.1 3.8 20.8 9 0 0 7 48.8-2.2 60.9z" fill="#9057ec"/><path d="m195.5 178.3c-.7 0-1.4-.1-2-.2-4-1-7-5-6.7-9.2 0-.3.2-.5.5-.4.3 0 .5.2.4.5-.2 3.6 2.5 7.3 6 8.2s7.7-1.1 9.2-4.4c.1-.2.4-.3.6-.2s.3.4.2.6c-1.4 3-4.7 5.1-8.2 5.1z" fill="#6b37c8"/><path d="m175.1 180.4c-.3 0-.5-.2-.5-.5.2-4.5-2-9.2-5.6-11.9-.2-.2-.3-.5-.1-.7s.5-.3.7-.1c3.9 2.9 6.3 7.8 6 12.7 0 .3-.2.5-.5.5z" fill="#6b37c8"/><path d="m221.3 232.6s.6 3 0 5.5l-47.3-2.8 1.4-5.8z" fill="#6b37c8"/><path d="m193.9 120.9s16.4 3.9 19.5 9.7c3.2 5.8-15.8 20.3-15.8 20.3l-8.1-18.8z" fill="#181843"/><path d="m166.8 152.3c-7.1-8.8-8-21.9-3.1-29s19-13.5 29.3-6.3 7.1 21.4 7.1 21.4z" fill="#181843"/><path d="m202.9 162.7-6.4-18.9s8-1.4 5.5-7.2c-2.2-5.2-7.8-2.6-9.1 1.1 0 0-4.9-19.7-20.5-12.9s-4.5 27.3-1.9 32.2c4.7 8.7 13.2 9.5 18 7.4l2.6 5.5s2.2 4.9 6.7 2.6c6-2.9 5.1-9.8 5.1-9.8z" fill="#f39e6e"/><path d="m169.2 151.2s-8.4-.6-6.3 5.8c2.3 7.1 10 .3 10 .3z" fill="#f39e6e"/><g fill="#181843"><path d="m183.2 141.1c.6.8.4 1.9-.4 2.6-.8.6-1.9.4-2.6-.4-.6-.8-.4-1.9.4-2.6.8-.5 2-.4 2.6.4z"/><path d="m175.3 145.1c.6.8.4 1.9-.4 2.6-.8.6-1.9.4-2.6-.4-.6-.8-.4-1.9.4-2.6.9-.6 2-.4 2.6.4z"/><path d="m178.5 151.6c-.1 0-.3 0-.4-.1-.9-.4-1.2-2-.9-5 0-.3.2-.5.5-.4.3 0 .5.3.4.5-.3 3.7.4 4.1.4 4.1.1.1.4-.2.6-.3.2-.2.5-.2.7 0s.2.5 0 .7c-.1-.1-.6.5-1.3.5z"/><path d="m181 154.2c-.2 0-.3-.1-.4-.2-.1-.2-.1-.5.1-.7 1.2-.7 2.1-1.9 2.5-3.3.1-.3.3-.4.6-.3s.4.3.3.6c-.4 1.6-1.5 3-2.9 3.8-.1.1-.1.1-.2.1z"/><path d="m170.7 157.2c-.1 0-.3-.1-.4-.2-.9-1.3-1.7-2.7-2.3-4.2-.1-.2 0-.5.2-.6s.5 0 .6.2c.6 1.4 1.4 2.8 2.2 4 .1.2.1.5-.1.7 0 .1-.1.1-.2.1z"/><path d="m166.8 155.9c-.2 0-.4-.1-.4-.3-.1-.2 0-.5.3-.6l2.3-.9c.2-.1.5 0 .6.3.1.2 0 .5-.3.6l-2.3.9c-.1 0-.2 0-.2 0z"/><path d="m196.1 141c-.2 0-.4-.1-.4-.3-.5-1-.4-2.3.2-3.3s1.7-1.6 2.8-1.7c.3 0 .5.2.5.4 0 .3-.2.5-.4.5-.8.1-1.6.6-2.1 1.3-.4.7-.5 1.6-.1 2.4.1.2 0 .5-.2.6s-.2.1-.3.1z"/><path d="m197.8 139.4c-.1 0-.1 0-.2 0l-1.6-.7c-.2-.1-.3-.4-.2-.6s.4-.3.6-.2l1.6.7c.2.1.3.4.2.6 0 0-.2.2-.4.2z"/><path d="m176.8 137.8c-.1 0-.2 0-.3-.1-.2-.1-.3-.4-.1-.7 1.2-1.8 3.4-2.9 5.5-2.8.3 0 .5.2.4.5 0 .3-.2.5-.5.4-1.8-.1-3.7.8-4.7 2.4 0 .2-.2.3-.3.3z"/><path d="m167.9 143.3h-.1c-.2-.1-.4-.4-.3-.6.7-2.1 3.2-3.4 5.3-2.9.3.1.4.3.3.6s-.3.4-.6.3c-1.7-.5-3.6.6-4.2 2.3 0 .2-.2.3-.4.3z"/><path d="m188.6 164.5c4.4-2.1 7-8.5 7-8.5s.2 7.3-5.7 11.3z"/></g><path d="m185.1 148c1 1 2.7 1 3.7-.1 1-1 1-2.7-.1-3.7-1-1-2.7-1-3.7.1-.9 1.1-.9 2.7.1 3.7z" fill="#e87555"/><path d="m171.8 156.3c1 1 2.7 1 3.7-.1 1-1 1-2.7-.1-3.7-1-1-2.7-1-3.7.1-1 1-1 2.7.1 3.7z" fill="#e87555"/><path d="m190.3 146.5 2.8-8.3.5-1.7s-2.1 3-4.5 10.8z" fill="#fff"/><path d="m196.5 143.8-1.3 7.3.8.3 1.2-7.8z" fill="#fff"/><path d="m170.4 156.8s5.6-5.4 7.3-6.3c1.4-.8 10.5-3.5 12.5-4 2 1.5 5.8 4.9 5.8 4.9.1 4.4-1.4 10.3-7.8 13.3-11.7 5.3-17.8-7.9-17.8-7.9z" fill="#fff"/><path d="m187.5 151.2-.3.1c-.2 0-.3-.1-.4-.3 0-.2.1-.3.3-.4l.3-.1c.2 0 .3.1.4.3 0 .1 0 .2-.1.3s-.1.1-.2.1zm-2.1.4c.1-.1.2-.2.1-.3 0-.2-.2-.3-.4-.2s-.4.1-.7.2c-.2.1-.3.2-.2.4s.2.3.4.2.4-.1.6-.2c.1 0 .2 0 .2-.1zm-2.5.9c.1-.1.2-.2.1-.4s-.3-.2-.4-.2c-.2.1-.4.2-.6.3s-.2.3-.2.4c.1.2.3.2.4.2.2-.1.4-.2.7-.3-.1 0 0 0 0 0zm-2.4 1.1c.1-.1.2-.3.1-.4-.1-.2-.3-.2-.4-.1-.2.1-.4.2-.6.3s-.2.3-.1.4c.1.2.3.2.4.1s.3-.2.6-.3c-.1 0 0 0 0 0zm-4.9 3.5c.2-.2.4-.3.5-.5.1-.1.1-.3 0-.5-.1-.1-.3-.1-.5 0s-.3.3-.5.5c-.1.1-.1.3 0 .5.2.1.4.1.5 0zm2.6-2.1c.1-.1.2-.3.1-.4s-.3-.2-.4-.1l-.3.2-.2.2c-.1.1-.2.3-.1.5.1.1.3.2.4.1l.2-.2zm-4.2 3.8c0-.1 0-.1 0 0l.3-.3c.1-.1.1-.3 0-.5-.1-.1-.3-.1-.5 0l-.2.2c-.1.1-.1.3 0 .5.1.1.2.1.4.1zm14.7-5.1c.1-.1.2-.2.1-.4s-.2-.3-.4-.2l-.3.1c-.2.1-.3.2-.2.4s.2.3.4.2l.4-.1c-.1.1 0 .1 0 0zm-2 .8c.1-.1.2-.2.1-.4s-.3-.2-.4-.2c-.2.1-.4.1-.6.2s-.2.3-.2.4c.1.2.3.2.4.2.2-.1.4-.1.7-.2-.1 0-.1 0 0 0zm-2.3.9c.1-.1.2-.3.1-.4-.1-.2-.3-.2-.4-.2-.2.1-.4.2-.6.3s-.2.3-.2.4c.1.2.3.2.4.2.3-.1.5-.2.7-.3zm-2.2 1.1c.1-.1.2-.3.1-.4-.1-.2-.3-.2-.4-.1-.2.1-.4.2-.5.3-.2.1-.2.3-.1.4.1.2.3.2.4.1s.3-.2.5-.3zm-2.1 1.3c.1-.1.2-.3.1-.4-.1-.2-.3-.2-.4-.1-.2.1-.3.2-.5.3s-.2.3-.1.4.3.2.4.1c.2-.1.3-.2.5-.3zm-2.5 1.7c.2-.1.3-.2.5-.4.1-.1.2-.3.1-.5-.1-.1-.3-.2-.4-.1-.2.1-.3.2-.5.4-.1.1-.2.3-.1.5s.3.2.4.1zm-1.7 1.4c0-.1 0-.1 0 0l.3-.2c.1-.1.2-.3 0-.5-.1-.1-.3-.2-.5 0l-.2.2c-.1.1-.2.3 0 .5zm12.8-3.7c.1-.1.2-.2.1-.4s-.2-.3-.4-.2l-.3.1c-.2.1-.3.2-.2.4s.2.3.4.2zm-2.3 1c.1-.1.2-.3.1-.4-.1-.2-.3-.2-.4-.2-.2.1-.4.2-.7.3-.2.1-.2.3-.2.4.1.2.3.2.4.2.3-.1.6-.2.8-.3zm-2.5 1.2c.1-.1.2-.3.1-.4-.1-.2-.3-.2-.4-.1-.2.1-.4.2-.6.4-.2.1-.2.3-.1.4.1.2.3.2.4.1s.4-.2.6-.4zm-2.4 1.5c.1-.1.2-.3.1-.4s-.3-.2-.4-.1c-.2.1-.4.3-.6.4-.1.1-.2.3-.1.4s.3.2.5.1c.1-.1.3-.2.5-.4zm-2.6 1.9.3-.2c.1-.1.2-.3 0-.5-.1-.1-.3-.1-.5 0l-.3.2c-.1.1-.2.3 0 .5.2.1.4.1.5 0z" fill="#e4effd"/><path d="m165.7 129c6 6.3 17.9 10.3 27.3 8.7l-2.5-18.7-24.5 7.7z" fill="#181843"/><path d="m169 199.1s-10.4 14.5-3 20 14.1-2.9 14.1-2.9z" fill="#231e31"/><path d="m157.9 227.4c2.5 2.6 6.8 3.1 9.8 1.1 3.9-2.6 4.2-8.3 1.3-11.7-3.8-4.5-10.9-2.7-12.7 2.8-1 2.6-.4 5.7 1.6 7.8z" fill="#231e31"/><path d="m147.7 230c-.8-2.1 12.9-8.9 15.8-7 2.9 2 1.4 16.3-.7 16.7s-2.8-6.8-2.8-6.8-1.2 3.5-4.4 3.3.8-6.6.8-6.6-7.8 2.9-8.7.4z" fill="#231e31"/><path d="m200.8 192.6s13.2 11.9 8.3 21c-4.4 8.1-14.4.9-14.4.9z" fill="#231e31"/><path d="m199.2 185.4c7.1 12 2.6 31.1-15.5 32.2-8.5.5-18.1-3.2-19.8-13.8-1.6-10.3 1.5-20.4 10.2-25.3 6-3.4 14.1-2.1 19.7 1.5 2.4 1.3 4.1 3.2 5.4 5.4z" fill="#231e31"/><path d="m163.3 287.7 1.8-18.3-7.7-1.4-1.6 20.4c2.5-.2 5-.5 7.5-.7z" fill="#cd6338"/><path d="m175.4 286.4c2.7-.9 5.5-1.3 8.3-1.3h.7.1c8.1-1.9 16.2-3.2 24.4-4.3l-.3-9.4 11.6-1.5s-1.4-20.5-3.6-28c-2.1-7.4-17.1-15-19.7-16.6h-16.1s-17.3 7.6-19.7 11.2c-2.3 3.6-5.6 31.8-5.6 31.8l8.5 2.6-1.4 16.8c4.2-.4 8.5-.9 12.8-1.3z" fill="#ff718e"/><path d="m217.9 279.8-.8-9.6-10.3 1.3.4 9.5c3.6-.5 7.1-.8 10.7-1.2z" fill="#f39e6e"/><path d="m206.9 272.5-.1-1 10.3-1.2.2 2.1z" fill="#231e31"/><path d="m163.7 269.6c-.3 0-.5-.3-.5-.5l3.2-25.8c0-.3.3-.4.5-.4.3 0 .4.3.4.5l-3.2 25.8c.1.2-.1.4-.4.4z" fill="#d94277"/><path d="m182.4 223.4s-2.8 1.2-4 3.1c-1.1 1.7-3.3 12.7.1 12.2 1.4-.2 7.3-5.4 7.3-5.4s6.5 6.5 8.2 6.3c1.6-.2 5.9-14.7.6-16.6-3.6-1.2-12.2.4-12.2.4z" fill="#fff"/><path d="m194.3 224.9 1.3-18.5s7.4 1.7 7.3-4.2c-.1-5.2-5.7-5-8.2-2.3 0 0 2.9-18.6-12.9-18.3s-13.6 21.7-13.1 26.9c.9 9.1 7.9 12.8 12.7 12.7l.2 5.6s.2 4.9 4.8 4.6c6.2-.4 7.9-6.5 7.9-6.5z" fill="#f39e6e"/><path d="m185 199.4c.2.9-.3 1.8-1.2 2.1-.9.2-1.8-.3-2.1-1.2-.2-.9.3-1.8 1.2-2.1 1-.2 1.9.3 2.1 1.2z" fill="#231e31"/><path d="m176.5 200.8c.2.9-.3 1.8-1.2 2.1-.9.2-1.8-.3-2.1-1.2-.2-.9.3-1.8 1.2-2.1 1-.3 1.9.3 2.1 1.2z" fill="#231e31"/><path d="m179.3 207c.2 0 .4-.2.4-.4s-.2-.5-.4-.5c-.9-.1-1.3-.3-1.5-.7-.3-.6-.2-1.7.5-3.4.1-.2 0-.5-.3-.6-.2-.1-.5 0-.6.3-.8 2-.9 3.3-.4 4.2.5.8 1.4 1 2.2 1.1z" fill="#290920"/><path d="m178.8 209.8c1.5-.3 2.9-1.1 3.8-2.3.2-.2.1-.5-.1-.6-.2-.2-.5-.1-.6.1-.8 1-2 1.7-3.3 1.9-.2 0-.4.3-.4.5.1.2.3.4.6.4z" fill="#290920"/><path d="m196.4 203.9c.2 0 .4-.2.4-.5 0-.8.4-1.5 1-2s1.5-.6 2.2-.4c.2.1.5-.1.6-.3s-.1-.5-.3-.6c-1-.3-2.2-.1-3 .5-.9.6-1.4 1.7-1.3 2.8-.1.3.1.5.4.5z" fill="#290920"/><path d="m198.5 203.1c.1 0 .2-.1.2-.1.2-.2.2-.5 0-.6l-1.1-1.2c-.2-.2-.5-.2-.6 0-.2.2-.2.5 0 .6l1.1 1.2c.1.1.3.1.4.1z" fill="#290920"/><path d="m186.4 193.9c.2 0 .3-.1.4-.3.1-.3 0-.6-.2-.7-1.8-.9-4.1-.7-5.8.4-.2.2-.3.5-.1.7s.5.3.7.1c1.4-.9 3.3-1.1 4.8-.3 0 .1.1.1.2.1z" fill="#290920"/><path d="m176.5 195.4c.1 0 .3-.1.3-.2.2-.2.1-.6-.1-.7-1.7-1.3-4.3-1.1-5.7.6-.2.2-.2.6.1.8.2.2.6.2.8-.1 1-1.2 3-1.4 4.3-.4z" fill="#290920"/><path d="m181.4 221.2c3.2.2 9.1-4.4 9.1-4.4s-2.3 4.8-9.1 6.1z" fill="#231e31"/><path d="m184.3 205.9c.5 1.2 2 1.8 3.2 1.3s1.8-2 1.3-3.2-2-1.8-3.2-1.3c-1.2.6-1.8 2-1.3 3.2z" fill="#e87555"/><path d="m169.9 208.2c.5 1.2 2 1.8 3.2 1.3s1.8-2 1.3-3.2-2-1.8-3.2-1.3c-1.2.6-1.8 2-1.3 3.2z" fill="#e87555"/><path d="m194.7 199.9c-.8 1.2-.7 8.9-1.6 8.3-.8-.6-1.6-14-1.6-14s-7-3.7-8.3-8.6c0 0-3.9 13.6-16 14.1 0 0-.1-21 16-20.3 16 .7 15.9 14.7 15.9 14.7z" fill="#231e31"/><path d="m186.8 178.9c12.4 3.9 8.6 17.8 8.6 17.8s1.1-8.7-8.6-13.6c-8.3-4.2-17.3.6-19.8 5.7 1.6-3.6 7.3-13.8 19.8-9.9z" fill="#fff"/><path d="m189.9 206.4 4.7-5.9 1.9-1.9s-1.6-.1-7.9 8z" fill="#fff"/><path d="m195.6 206.4-3.6 5.9 1 .5 3.4-6.3z" fill="#fff"/><path d="m168.6 207.8s7.1-2.7 8.9-2.9c1.6-.1 10.4 1.1 12.4 1.4 1.1 2.1 3.1 6.5 3.1 6.5-1.6 3.8-5.2 8.3-11.9 8.4-12.2.1-12.5-13.4-12.5-13.4z" fill="#fff"/><path d="m185.7 209.4-.3-.1c-.2 0-.3-.2-.2-.4 0-.2.2-.3.4-.2l.3.1c.2 0 .3.2.2.4 0 .1-.1.2-.2.2s-.2 0-.2 0zm-2-.5c.1 0 .2-.1.2-.3s-.1-.3-.3-.4c-.2 0-.4-.1-.6-.1s-.3.1-.3.3.1.3.3.3.4.1.6.1c0 .1 0 .1.1.1zm-2.5-.2c.1 0 .2-.1.2-.3s-.1-.3-.3-.3-.4 0-.6 0-.3.1-.3.3.1.3.3.3h.7c-.1 0-.1 0 0 0zm-2.6 0c.1 0 .3-.2.2-.3 0-.2-.2-.3-.3-.3-.2 0-.4 0-.6.1-.2 0-.3.2-.3.3 0 .2.2.3.3.3.3-.1.5-.1.7-.1zm-5.5 1.1c.2-.1.4-.1.6-.2.2 0 .3-.2.2-.4 0-.2-.2-.3-.4-.2s-.4.1-.6.2-.2.2-.2.4c.1.2.2.2.4.2zm3-.8c.2 0 .3-.2.2-.4 0-.2-.2-.3-.4-.2l-.4.1-.3.1c-.2 0-.3.2-.2.4 0 .2.2.3.4.2l.3-.1zm-5.1 1.6c.1 0 .1 0 0 0l.3-.1c.2-.1.2-.2.2-.4-.1-.2-.2-.2-.4-.2l-.3.1c-.2.1-.2.3-.2.4.2.2.3.2.4.2zm14.7 1.4c.1 0 .2-.1.2-.3s-.1-.3-.3-.3h-.3c-.2 0-.3.1-.3.3s.1.3.3.3h.4c-.1 0 0 0 0 0zm-2-.2c.1 0 .2-.1.2-.3s-.1-.3-.3-.3-.4 0-.6 0-.3.1-.3.3.1.3.3.3h.7c-.1 0 0 0 0 0zm-2.3 0c.1 0 .2-.2.2-.3 0-.2-.1-.3-.3-.3s-.4 0-.6 0-.3.1-.3.3.1.3.3.3h.7c-.1 0-.1 0 0 0zm-2.3.1c.1 0 .3-.2.2-.3 0-.2-.2-.3-.3-.3-.2 0-.4 0-.6.1-.2 0-.3.2-.3.3 0 .2.2.3.3.3.2-.1.4-.1.7-.1-.1 0-.1 0 0 0zm-2.3.2c.2 0 .3-.2.2-.3 0-.2-.2-.3-.3-.3-.2 0-.4.1-.6.1s-.3.2-.3.3c0 .2.2.3.3.3.3 0 .5 0 .7-.1-.1 0 0 0 0 0zm-2.9.6c.2 0 .4-.1.6-.1s.3-.2.2-.4c0-.2-.2-.3-.4-.2-.2 0-.4.1-.6.1s-.3.2-.2.4c.1.1.3.2.4.2zm-2 .5s.1 0 0 0l.3-.1c.2 0 .3-.2.2-.4 0-.2-.2-.3-.4-.2l-.3.1c-.2 0-.3.2-.2.4.1.1.3.2.4.2zm12.5 1.8c.1 0 .2-.1.2-.3s-.1-.3-.3-.3h-.3c-.2 0-.3.1-.3.3s.1.3.3.3h.4c-.1 0-.1 0 0 0zm-2.4-.1c.1 0 .2-.2.2-.3 0-.2-.1-.3-.3-.3s-.5 0-.7 0-.3.1-.3.3.1.3.3.3zm-2.7.2c.2 0 .3-.2.2-.3 0-.2-.2-.3-.3-.3-.2 0-.5 0-.7.1-.2 0-.3.2-.3.3 0 .2.2.3.3.3.4-.1.6-.1.8-.1zm-2.6.3c.2 0 .3-.2.2-.4 0-.2-.2-.3-.4-.2-.2 0-.4.1-.7.1-.2 0-.3.2-.2.4 0 .2.2.3.4.2.2 0 .5-.1.7-.1zm-2.9.6.3-.1c.2 0 .3-.2.2-.4 0-.2-.2-.2-.4-.2l-.3.1c-.2 0-.3.2-.2.4 0 .2.2.3.4.2z" fill="#e4effd"/><path d="m162.7 287.7-1.6-18.2-7.7 1.3 1.9 17.6c2.4-.2 4.9-.4 7.4-.7z" fill="#f39e6e"/><path d="m129.7 288.1c8.4.4 16.8-.2 25.3.4.3 0 .7-.1 1-.1l-1.5-16.1 8.5-2.5s-4.2-26.7-6.6-30.1-18.7-10.2-18.7-10.2h-16.1c-2.6 1.5-17.5 8.6-19.7 15.6-2.2 7.1-3.6 26.3-3.6 26.3l11.6 1.4-.5 13.6c6.9.4 13.6 1.3 20.3 1.7z" fill="#7bb7f0"/><path d="m105 286.1h.6c1.8.1 3.7.2 5.5.3l.6-13.6-10.3-1.2-1.2 13.5c1.6.4 3.2.7 4.8 1z" fill="#f39e6e"/><path d="m111.6 273.7.1-.9-10.3-1.1-.1 1.9z" fill="#231e31"/><path d="m154.8 271c-.2 0-.4-.2-.5-.4l-3.2-24.2c0-.3.1-.5.4-.5s.5.1.5.4l3.2 24.2c.1.3-.1.5-.4.5z" fill="#4d99e0"/><path d="m135.9 226.5s2 .4 3 2.9c.8 1.9 2.3 12.1.4 12.9-2.1.8-7.8-7.4-7.8-7.4s-6.4 8.4-8 8.1c-1.6-.2-5.9-14.7-.6-16.6 3.5-1.3 13 .1 13 .1z" fill="#fff"/><path d="m148.2 209.2s11-9.4.2-19.6c0 0 5.6.9 5.9.2s-7.9-6.5-16-9.1c-7.6-2.4-14 .2-16.2 2.4s-2.1 5.8-2.1 5.8c-5.2-.5-5.6 4.6-4.8 7.6 1.1 4 7.6 19.2 7.6 19.2z" fill="#231e31"/><path d="m123.1 227.3-1.3-18.5s-7.4 1.7-7.3-4.2c.1-5.2 5.7-5 8.2-2.3 0 0-2.9-18.6 12.9-18.3s13.6 21.7 13.1 26.9c-.9 9.1-7.9 12.8-12.7 12.7l-.2 5.6s-.2 4.9-4.8 4.6c-6.2-.3-7.9-6.5-7.9-6.5z" fill="#f39e6e"/><path d="m132.4 201.9c-.2.9.3 1.8 1.2 2.1.9.2 1.8-.3 2.1-1.2.2-.9-.3-1.8-1.2-2.1-1-.2-1.9.3-2.1 1.2z" fill="#231e31"/><path d="m140.9 203.2c-.2.9.3 1.8 1.2 2.1.9.2 1.8-.3 2.1-1.2.2-.9-.3-1.8-1.2-2.1-1-.2-1.9.3-2.1 1.2z" fill="#231e31"/><path d="m138.1 209.5c-.2 0-.4-.2-.4-.4s.2-.5.4-.5c.9-.1 1.3-.3 1.5-.7.3-.6.2-1.7-.5-3.3-.1-.2 0-.5.3-.6.2-.1.5 0 .6.3.8 2 .9 3.3.4 4.2-.5.8-1.4 1-2.2 1.1 0-.1 0-.1-.1-.1z" fill="#290920"/><path d="m138.6 212.2c-1.5-.3-2.9-1.1-3.8-2.3-.2-.2-.1-.5.1-.6.2-.2.5-.1.6.1.8 1 2 1.7 3.3 1.9.2 0 .4.3.4.5-.1.3-.3.5-.6.4z" fill="#290920"/><path d="m121 206.3c-.2 0-.4-.2-.4-.5 0-.8-.4-1.5-1-2s-1.5-.6-2.2-.4c-.2.1-.5-.1-.6-.3s.1-.5.3-.6c1-.3 2.2-.1 3 .5.9.6 1.4 1.7 1.3 2.8.1.4-.1.5-.4.5z" fill="#290920"/><path d="m118.9 205.6c-.1 0-.2-.1-.2-.1-.2-.2-.2-.5 0-.6l1.1-1.2c.2-.2.5-.2.6 0 .2.2.2.5 0 .6l-1.1 1.2c-.1 0-.2.1-.4.1z" fill="#290920"/><path d="m131 196.4c-.2 0-.3-.1-.4-.3-.1-.3 0-.6.2-.7 1.8-.9 4.1-.7 5.8.4.2.2.3.5.1.7s-.5.3-.7.1c-1.4-.9-3.3-1.1-4.8-.3.1.1 0 .1-.2.1z" fill="#290920"/><path d="m140.9 197.8c-.1 0-.3-.1-.3-.2-.2-.2-.1-.6.1-.7 1.7-1.3 4.3-1.1 5.7.6.2.2.2.6-.1.8-.2.2-.6.2-.8-.1-1-1.2-3-1.4-4.3-.4 0 0-.2.1-.3 0z" fill="#290920"/><path d="m136 223.7c-3.2.2-9-4.3-9-4.3s3.4 5.8 8.9 7.1z" fill="#231e31"/><path d="m133.1 208.4c-.5 1.2-2 1.8-3.2 1.3s-1.8-2-1.3-3.2 2-1.8 3.2-1.3c1.3.5 1.8 2 1.3 3.2z" fill="#e87555"/><path d="m147.5 210.7c-.5 1.2-2 1.8-3.2 1.3s-1.8-2-1.3-3.2 2-1.8 3.2-1.3c1.3.5 1.8 2 1.3 3.2z" fill="#e87555"/><path d="m122.8 202.4c.8 1.2.7 8.9 1.6 8.3.8-.6 1.6-14 1.6-14s7-3.7 8.3-8.6c0 0 3.9 13.6 16 14.1 0 0 .1-21-16-20.3-16 .7-15.9 14.7-15.9 14.7z" fill="#231e31"/><path d="m127.7 209-4.7-5.9-1.5-1.8s2 1 7.6 7.8z" fill="#fff"/><path d="m121.9 208.8 3.7 6.1-.9.5-3.6-6.4z" fill="#fff"/><path d="m148.8 210.2s-6.9-2.5-8.7-2.6c-1.6-.1-10.4 1.1-12.4 1.4-1.1 2.1-3.1 6.5-3.1 6.5 1.6 3.8 5.2 8.3 11.9 8.4 12.2 0 12.3-13.7 12.3-13.7z" fill="#fff"/><path d="m131.8 212c-.1 0-.2-.1-.2-.2 0-.2.1-.3.2-.4l.3-.1c.2 0 .3.1.4.2s-.1.3-.2.4l-.3.1c-.1 0-.2 0-.2 0zm2.2-.5c.2 0 .4-.1.6-.1s.3-.2.3-.3c0-.2-.2-.3-.3-.3-.2 0-.4.1-.6.1s-.3.2-.3.4c0 .1.1.2.2.3.1-.1.1-.1.1-.1zm2.5-.2h.6c.2 0 .3-.1.3-.3s-.1-.3-.3-.3-.4 0-.6 0-.3.2-.3.3.1.3.3.3zm2.5 0c.2 0 .4 0 .6.1.2 0 .3-.1.3-.3s-.1-.3-.3-.3-.4 0-.6-.1c-.2 0-.3.1-.3.3 0 .1.1.3.3.3zm5.9.9c.1-.2 0-.3-.2-.4s-.4-.1-.6-.2c-.2 0-.3 0-.4.2 0 .2 0 .3.2.4s.4.1.6.2c.2 0 .3 0 .4-.2zm-3.4-.6.3.1.3.1c.2 0 .3-.1.4-.2 0-.2-.1-.3-.2-.4l-.3-.1-.4-.1c-.2 0-.3.1-.4.2 0 .2.1.4.3.4zm5.4 1.4c.1-.2 0-.3-.2-.4l-.3-.1c-.2-.1-.3 0-.4.2s0 .3.2.4l.3.1h.1c.1 0 .2 0 .3-.2zm-14.9 1.6h.3c.2 0 .3-.2.3-.3 0-.2-.2-.3-.3-.3h-.3c-.2 0-.3.2-.3.3 0 .2.1.3.3.3-.1 0 0 0 0 0zm2-.2h.6c.2 0 .3-.1.3-.3s-.1-.3-.3-.3-.4 0-.6 0-.3.2-.3.3c0 .2.1.3.3.3zm2.3 0h.6c.2 0 .3-.1.3-.3s-.1-.3-.3-.3-.4 0-.6 0-.3.1-.3.3c0 .1.1.3.3.3zm2.3.1h.6c.2 0 .3-.1.3-.3s-.1-.3-.3-.3-.4 0-.6-.1c-.2 0-.3.1-.3.3s.1.4.3.4zm2.3.2c.2 0 .4.1.6.1s.3-.1.3-.3-.1-.4-.3-.3c-.2 0-.4-.1-.6-.1s-.3.1-.3.3.1.3.3.3c-.1 0 0 0 0 0zm3.1.3c0-.2-.1-.3-.2-.4-.2 0-.4-.1-.6-.1-.2 0-.3.1-.4.2 0 .2.1.3.2.4.2 0 .4.1.6.1.2.1.4 0 .4-.2zm2 .6c0-.2 0-.3-.2-.4l-.3-.1c-.2 0-.3 0-.4.2 0 .2 0 .3.2.4l.3.1c.2 0 .4-.1.4-.2zm-12.7 2h.3c.2 0 .3-.2.3-.3 0-.2-.2-.3-.3-.3h-.3c-.2 0-.3.2-.3.3 0 .2.1.3.3.3zm2.3-.1h.7c.2 0 .3-.1.3-.3s-.1-.3-.3-.3-.5 0-.7 0-.3.1-.3.3.1.3.3.3zm2.7.2c.2 0 .4 0 .7.1.2 0 .3-.1.3-.3s-.1-.3-.3-.3-.5 0-.7-.1c-.2 0-.3.1-.3.3 0 .1.1.2.3.3zm2.6.3c.2 0 .4.1.7.1.2 0 .3-.1.4-.2 0-.2-.1-.3-.2-.4-.2 0-.4-.1-.7-.1-.2 0-.3.1-.4.2 0 .2.1.4.2.4zm3.3.4c0-.2-.1-.3-.2-.4l-.3-.1c-.2 0-.3.1-.4.2 0 .2.1.3.2.4l.3.1c.2.1.4 0 .4-.2z" fill="#e4effd"/><path d="m157.5 198.2-1.7-15.4 5.3 17.1z" fill="#231e31"/><path d="m83.6 188.8s-3.9 7.1-2.4 10.3 5 7.5 5 7.5l6.4-21.5-6.2-1z" fill="#f39e6e"/><path d="m103.9 171.7c-5.8 4.2-37.2 39.3-35.8 56.6s33.2 48.4 39.8 40.8l8-10.9s2.4-3.3-1.1-6.8c-3.5-3.4-23.4-24.3-23.4-24.3l17-26.5z" fill="#c75e21"/><path d="m109.3 194.5c-.3 0-.5-.2-.5-.5.4-6.2-.5-12.7-2.5-18.6-.1-.2 0-.5.3-.6.2-.1.5 0 .6.3 2.1 6 3 12.6 2.6 18.9-.1.4-.3.5-.5.5z" fill="#954614"/><path d="m85 232.9c-.3 0-.5-.2-.5-.5.1-1.9 1.3-3.7 3-4.5-1.7-.7-3.8-.5-5.2.7-.2.2-.5.1-.7-.1s-.1-.5.1-.7c2-1.7 5.1-1.8 7.2-.3.1.1.2.3.2.5s-.2.3-.3.4c-1.8.5-3.2 2.2-3.3 4.1 0 .2-.2.4-.5.4z" fill="#954614"/><path d="m117.7 278.8c2.1 1.8 5.9 6 8.8 9 .9.1 1.7.1 2.6.2-2.4-3.5-6.6-8.7-6.6-8.7s11.2 6.4 12.3 5.6-10.6-8.9-10.6-8.9 12.7 7.3 12.9 5.9-11-9.1-11-9.1 12.6 7.2 12.7 5.6-12.2-10.2-12.2-10.2 9.3 2 8.4 0-16.7-7.1-16.7-7.1l-6.7 9.6c.1 0 2.5 5 6.1 8.1z" fill="#f39e6e"/><path d="m107.9 269s2.1 2.7 3.4 2.6c1.3 0 7.7-10.1 8.1-10.9.4-.9-3.5-2.6-3.5-2.6z" fill="#954614"/><path d="m223.5 171.7c4.5 5.6 25.6 47.7 19.6 64s-44.8 37.9-49.1 28.8l-4.8-12.6s-1.4-3.8 2.8-6.2c4.3-2.4 28.9-17.2 28.9-17.2l-9.5-30z" fill="#9057ec"/><path d="m204.2 135s13.7 5.9 15.9 10.3c2.2 4.5-2.5 9.3-2.5 9.3s6 2 6.3 7.9c.3 5.8-4.9 9.2-4.9 9.2s3.1 3.6 2.5 7.6c-.6 4.1-4.8 6.6-8.8 5.4s-10.6-6.3-6.3-13.3c0 0-8.7-1.1-4.3-8.7 0 0-7.6-8.4-3.9-14.1 5.1-7.6 6-13.6 6-13.6z" fill="#181843"/><path d="m218.8 222.3c-.2 0-.3-.1-.4-.3-1.7-3.4-2.8-9-3.8-13.9-.4-1.8-.7-3.5-1-4.9-1-4-1.6-10 .8-15.6.1-.2.4-.3.6-.2s.3.4.2.6c-2.3 5.3-1.7 11.1-.8 15 .3 1.4.7 3.1 1 4.9.9 4.6 2.1 10.4 3.7 13.7.1.2 0 .5-.2.6 0 .1 0 .1-.1.1z" fill="#6b37c8"/><path d="m187.6 255.5s-12 .6-13 1.8 5.8 1.6 5.8 1.6-10.2 3.6-10.5 4.8c-.2 1.2 10-1.5 10-1.5s-9.3 3.2-9.5 4.2c-.1 1 10.2-1.7 10.2-1.7s-9.7 3.4-9.1 4.2 9.6-1.5 9.6-1.5-7.3 2.4-6.9 3.2c.3.8 7.3-1 10.4-2.5s5.7-4.5 5.7-4.5z" fill="#f39e6e"/><path d="m193.9 264.5s-2.7 2-3.9 1.6-4.8-11.8-4.9-12.7 4.1-1.5 4.1-1.5z" fill="#6b37c8"/><path d="m161.2 270.3-6.7 1.9.1.9 6.8-.7z" fill="#231e31"/><path d="m205.5 224.4c2.5 2.6 6.8 3.1 9.8 1.1 3.9-2.6 4.2-8.3 1.3-11.7-3.8-4.5-10.9-2.7-12.7 2.8-1 2.6-.4 5.8 1.6 7.8z" fill="#231e31"/><path d="m231.2 222.3c.2-2.3-14.8-5.2-17.1-2.6s2.9 16.1 5.1 16 .9-7.3.9-7.3 2.1 3.1 5.1 2c3-1-2.5-6.2-2.5-6.2s8.3.7 8.5-1.9z" fill="#231e31"/><path d="m89 178.7s-5.6 6.1-6.3 8.6c-.6 2.6 1.2 9.7 2.6 9s1.3-6.1 1.3-6.1l5.9-6.8z" fill="#f39e6e"/></svg>