<svg enable-background="new 0 0 567.6 478" viewBox="0 0 567.6 478" xmlns="http://www.w3.org/2000/svg" xmlns:xlink="http://www.w3.org/1999/xlink"><clipPath id="a"><path d="m445.4 238.1-12.9-35c1-3.7 1.8-7.5 2.4-11.3 4.3-26.2-3.5-57.2-26.4-69.2-9.7-5.1-20.7-6-31.7-6.7l-5.9-16.5-33 8.8c-21.3-12-28.1-39.7-42.5-59.9-18.5-25.9-51.9-39.4-82.4-33.3s-56.6 31.5-64.4 62.7c-3.5 14.2-3.4 29-5.4 43.5-.5 3.7-1.2 7.5-2.1 11.2l-20.8-76.9-54.9-35.4-8.7 55.4 46 97.4c-14.6 4.1-30.7 5.4-44.2 12.3-31 15.9-33.7 52.8-27.2 83.7 7.5 35.6 13.1 69.6 31.5 101.4 10.6 18.3 24 35 39.7 48.9 41.5 36.8 99.2 53.8 153 43.4 45.6-8.8 87.3-37.6 112.5-77.5l27.3-14.7c47.2-25.5 68.6-81.9 50.1-132.3z"/></clipPath><path d="m315.8 308c-18.7-5.5-37.8 6.8-52.6 19.5s-30.8 27.4-50.3 27.4c-19.8.1-35.9-14.8-50.9-27.6s-34.4-25.2-53.2-19.3c-7 2.2-13.1 6.8-20 9.2-14.3 4.9-30.6-.2-42.6-9.5-3-2.3-5.7-4.8-8.3-7.5 5.4 24.3 12 47.7 24.9 70.1 10.6 18.3 24 35 39.7 48.9 41.5 36.8 99.2 53.8 153 43.4s102.2-48.5 124.5-100.1c.9-2.1 1.7-4.2 2.6-6.3-12.8-5.8-24.7-13.7-34.9-23.6-9.9-9.3-18.9-20.7-31.9-24.6z" fill="#d0c1ea"/><path d="m434.9 191.7c4.3-26.2-3.5-57.2-26.4-69.2-21.5-11.2-49.1-2.4-70.4-14.2-21.5-11.9-28.3-39.8-42.8-60.1-18.4-25.8-51.8-39.3-82.3-33.2s-56.6 31.5-64.4 62.7c-3.5 14.2-3.4 29-5.4 43.5-1.9 14.5-6.4 29.4-16.8 39.4-17.9 17-46.2 13.5-68 24.6-31 15.9-33.7 52.8-27.2 83.7 2.2 10.6 4.3 21.1 6.6 31.4 2.6 2.7 5.4 5.2 8.3 7.5 12 9.3 28.3 14.4 42.6 9.5 6.9-2.4 13-7 20-9.2 18.8-5.9 38.2 6.5 53.2 19.3s31.1 27.7 50.9 27.6c19.5-.1 35.5-14.7 50.3-27.4s33.9-25 52.6-19.5c13 3.8 22 15.3 31.8 24.7 10.2 9.8 22.1 17.7 34.9 23.6 11.3-29 15.7-60.5 26.1-89.9 8.9-25 22.1-48.6 26.4-74.8z" fill="#e2d3f5"/><path d="m124.8 97.9c-1.1 11.9-6.9 23.3-16 31.1-10.4 8.9-24 12.8-37.2 16.5-7.2 2-14.3 4-21.5 6-4 1.1-8.1 2.2-12.2 1.9-7.2-.5-13.5-5.4-17.6-11.4-8.6-12.5-8.4-29.6-2.3-43.5s17.6-24.8 30.2-33.2c9.8-6.5 20.7-11.8 32.4-13.1 11.5-1.2 25.5 1.8 33.4 10.7 8 9.1 11.9 23.1 10.8 35z" fill="#e2d3f5"/><g clip-path="url(#a)"><path d="m135.2 387.9-2.9 4.9c-4.6 7.6-7.1 16.4-7.1 25.3v39.9l83 10 70.5-6-17.5-59z" fill="#56438c"/><path d="m151 419.8 25.1 4.7c18.9 3.6 38.3 3.1 57-1.3l16.9-3.9c5.6-1.3 10.3-4.8 13.2-9.6l-2-6.8-126-15-2.9 4.9c-1.6 2.6-2.9 5.4-4 8.2l.4.8c4 9.4 12.4 16.1 22.3 18z" fill="#422c4f"/><path d="m210 463.5c-3.1-3.4-7-7.1-11.6-10.5s-9.8-6.6-15.3-9.2-11.2-4.8-16.7-6.2c-5.5-1.5-10.8-2.3-15.4-2.6 8.6 3.4 19.6 7.6 30.2 12.8 10.6 5.1 20.8 11 28.8 15.7z" fill="#422c4f"/><path d="m255.5 432.3c-3.5.4-7.5 1.3-11.7 2.9-4.1 1.5-8.3 3.6-12.2 6.2s-7.5 5.6-10.5 8.8-5.4 6.5-7.2 9.6c5.2-4.8 12-10.7 19.5-15.6 7.6-5 15.7-9 22.1-11.9z" fill="#422c4f"/><path d="m213 213.3 44.3 6.5 56.7 20.9-3.8 49.4-23.3-5.7-20.1 59.5c-3.6 10.6-3.1 22.2 1.3 32.5 3.7 8.6 3 18.4-1.9 26.3l-2.3 3.8c-1.9 3.2-5.1 5.4-8.8 6-21.7 3.9-63.4 8-103.2-2.2-9.8-2.5-18.2-8.9-23.1-17.8-4.5-8.1-5.7-17.6-3.5-26.6 4.5-17.9 12.7-48.5 20.6-66.2l-33.9-18.1 24.1-37.6c8-12.5 20.8-21.1 35.5-23.6z" fill="#6c6fc3"/><g fill="#56438c"><path d="m310.3 290.1 3.8-49.4-56.7-20.9-44.2-6.5c9.5 34.4 23.9 67.4 42.7 97.7 4.5 7.3 9.4 14.6 15.1 21.1l16.1-47.6z"/><path d="m172 323.9c-1.7 2.1-2.7 4.7-2.7 7.5 0 6.6 5.4 12 12 12s12-5.4 12-12c0-6.2-4.8-11.3-10.9-11.9l-9-33.6-38.3 8 10.9 5.8c-7.9 17.6-16.1 48.2-20.6 66.2l39-54.9z"/><path d="m243.1 251.8c-4 .7-8.6.9-13.2-.1-4.6-.9-9.3-2.8-13.2-5.8s-7-6.9-9-11.2c-2.1-4.2-3.2-8.7-3.5-12.7-.9 3.9-.8 8.9.9 13.8s4.9 9.7 9.4 13.1 10 5.3 15.1 5.6c5.1.5 9.9-.7 13.5-2.7z"/><path d="m275.7 300.6c-5.7-.4-12.2-1-19-2s-13.9-2.5-20.8-4.5-13.7-4.5-20-7.3c-6.3-2.7-12-5.7-17.1-8.4 3.9 4.2 9.1 8.4 15.2 12.1s13.1 6.8 20.4 8.9 14.9 3.2 22 3.4c7.1.1 13.8-.8 19.3-2.2z"/><path d="m262 326.6c-6.4 3.5-13.9 7.2-22.1 10.7s-17.1 6.6-26.2 9.2c-9.1 2.5-18.4 4.4-27.2 5.7s-17.2 1.9-24.5 2.3c7.3.8 15.7 1 24.8.3 9-.7 18.5-2.4 27.8-4.9 9.3-2.6 18.3-6.1 26.4-10.2 8-4.1 15.2-8.6 21-13.1z"/><path d="m237.3 334.3c-7.4.3-16.8.8-26.2.5s-18.8-1.3-26.2-2c6.7 3 16.3 5.3 26 5.6 9.8.2 19.5-1.5 26.4-4.1z"/></g><path d="m146 299.8-29.9-16-21.4 35.7z" fill="#eba588"/><path d="m116.1 283.8 29.9 16-24 9.2-8.2-21.4z" fill="#422c4f"/><path d="m152.4 279.5-1.9-11.7-52.9 48.2c-9.5 8.6-9.5 23.5-.1 32.2 9.8 9 25.3 7.3 32.8-3.7l30.6-44.4-.5-.8c-4.1-5.8-6.8-12.6-8-19.8z" fill="#f0bf9c"/><path d="m152.1 266.4-1.6 1.5 1.9 11.7c1.2 7.2 3.9 14 8.1 20l.5.8 8.3-12z" fill="#eba588"/><path d="m173.3 285.9 1.4 2.4c2.7-3.7 8.3-6.5 11-7.2-3.3.3-5.2.5-8.2 1.8-1.5.8-3 1.8-4.2 3z" fill="#a59b95"/><path d="m171.3 282.3 2 3.6c1.2-1.3 2.6-2.3 4.2-3 3-1.3 4.9-1.6 8.2-1.8l-2.5-6.9c-7.9 2.4-11.1 6.9-11.9 8.1z" fill="#d4cfbe"/><path d="m174.7 288.3 4 7.2c1.2-1.2 2.6-2.2 4.2-2.9 1.8-.7 4.6-1.5 6.5-1.7l-3.7-9.9c-2.8.8-8.3 3.7-11 7.3z" fill="#d4cfbe"/><path d="m178.7 295.6 1.3 2.4c2.1-3 5.9-5.7 9.3-6.9-1.9.2-4.7 1-6.5 1.7-1.5.5-2.9 1.5-4.1 2.8z" fill="#a59b95"/><path d="m171.3 282.3c.8-1.2 4-5.8 11.8-8-5.9.1-11.5 2.8-15.3 7.4l-.4.5 4 6.7c.4-1.1 1.1-2 1.9-2.9z" fill="#a59b95"/><path d="m173.3 285.9c-.8.9-1.5 1.8-1.9 2.9l1.7 2.9c.2-1.2.8-2.3 1.5-3.4z" fill="#a59b95"/><path d="m178.6 300.9 5.1 8.6 2-1.5-5.6-10.1c-.7 1-1.2 2-1.5 3z" fill="#a59b95"/><path d="m189.4 291.1c-3.4 1.2-7.2 3.9-9.3 6.9l5.6 10.1 7.8-5.9z" fill="#d4cfbe"/><path d="m178.7 295.6c-.7.8-1.3 1.7-1.8 2.6l1.6 2.8c.3-1 .8-2 1.5-3z" fill="#a59b95"/><path d="m174.7 288.3c-.8 1.1-1.4 2.2-1.5 3.4l3.8 6.5c.4-1 1-1.8 1.8-2.6z" fill="#a59b95"/><path d="m194.9 319.5c-7 0-12.6-5.7-12.6-12.6 0-.1 0-.1 0-.2-1.1 1.9-1.8 4.1-1.8 6.5 0 7 5.7 12.6 12.6 12.6s12.5-5.6 12.6-12.5c-2.2 3.7-6.2 6.2-10.8 6.2z" fill="#d4cfbe"/><path d="m194.9 319.5c4.6 0 8.6-2.5 10.8-6.2 0-.1 0-.1 0-.2 0-7-5.7-12.6-12.6-12.6-4.6 0-8.6 2.5-10.8 6.2v.2c0 6.9 5.6 12.6 12.6 12.6z" fill="#e4e4e0"/><path d="m200.4 307.4c-.3 1.9-3.4 3-7 2.4-3.5-.6-6.1-2.6-5.8-4.5s3.4-3 7-2.4c3.5.6 6.1 2.6 5.8 4.5z" fill="#fff"/><path d="m73.6 37.1 84 194.4 10.3-3.9-64.4-159.3z" fill="#938985"/><path d="m73.6 37.1-.3-.3-3.4 41.1 77 157.6 10.7-4z" fill="#a59b95"/><path d="m73.3 36.8-7.9 41.9 81.5 156.8-77-157.6z" fill="#fff"/><path d="m103.5 68.3 64.4 159.3-61.9-160.7-32.5-29.9.1.1z" fill="#d4cfbe"/><path d="m174.2 201.4-4.4 6.8c.1 8-4 16.2-10.5 21.4-6.4 5.1-15.3 7.5-23.9 6.4-2.8-.4-5.6-1.1-8.4-2.1l2.2-3.3-11.9-10-9 5.2-4.4 6.8c8.2 8.5 18.8 13.9 29.9 15.3 1.9.2 3.8.4 5.7.4 9.9 0 19.6-3.3 27.2-9.3 9.6-7.6 19.6-25.9 19.4-37.7z" fill="#a59b95"/><path d="m143.9 241.4c-1.9 0-3.8-.1-5.7-.4-11.1-1.4-21.8-6.8-29.9-15.3l8.7-8.3c6.3 6.5 14.3 10.7 22.8 11.7 8.6 1.1 17.5-1.3 23.9-6.4 6.6-5.2 10.6-13.4 10.5-21.4l12-.1c.1 11.8-5.5 23.4-15.1 30.9-7.6 6.1-17.3 9.3-27.2 9.3z" fill="#d4cfbe"/><path d="m179.1 236.3c3-1.7 6.7-.4 8 2.7l4.1 9.9c1.1 2.6-.1 5.7-2.7 6.9-2.6 1.2-5.7.1-7-2.5l-4.7-9.6c-1.3-2.7-.3-5.9 2.3-7.4z" fill="#eba588"/><path d="m146.8 242.5 10.5-8.4c3.3-2.7 7.9-3 11.5-.8l6.2 3.7c1.9 1.2 3.4 2.9 4.2 5l10.9 28.6c.7 2 .4 4.2-.9 5.8l-3.5 4.7-2.5-6.9c-5.9.1-11.5 2.8-15.3 7.4l-.4.5 4 6.7-7.1-1.6c-4.4-.9-7.9-4-9.5-8.1l-10.4-27.6c-1.4-3.2-.4-6.9 2.3-9z" fill="#f0bf9c"/><path d="m188.8 267.3-12.5-3.5c-1.8-.5-3.8 0-5.2 1.4l-6.8 6.7 5-7.6c2.1-3.2 6.3-4.2 9.6-2.4z" fill="#eba588"/><path d="m186.2 260.3-12.7-6.2c-2.7-1.3-5.9-.5-7.6 2l-4.6 6.7 3.2-7.4c1.8-4.1 7-5.6 10.7-2.9z" fill="#eba588"/><path d="m181.8 248.8-9.7-6.1c-2.7-1.7-6.2-1.1-8.2 1.3l-4.7 5.7 3.9-7.3c1.7-3.2 5.9-4 8.7-1.7z" fill="#eba588"/><path d="m231.6 219.4c4.7 3.7 10.6 5.7 16.5 5.6 2.8 0 5.6-.6 8.2-1.5l3.9-13.9-39.5-8.6-.7 1.2c2.5 6.5 6 12.8 11.6 17.2z" fill="#422c4f"/><path d="m248.1 225c-5.9.1-11.9-1.9-16.5-5.6-5.5-4.3-9-10.7-11.6-17.3l-6.9 11.1c-3.4 5.5-3.9 12.4-1.1 18.3 4.2 9.1 13.8 14.8 23.7 13.5 9.4-1.2 16.9-7.8 19.3-16.6l1.4-5c-2.8 1-5.5 1.5-8.3 1.6z" fill="#f0bf9c"/><path d="m206.6 191.2-18-37.8c-3.7-7.8 0-17 8-20.2 16.4-6.4 31-21.3 43.3-33.7 1.4-1.4 2.9-2.9 4.7-3.9 1.8-.9 4.1-1.2 5.9-.2 2 1.2 2.9 3.8 2.6 6.1s-1.4 4.5-2.5 6.5c2.4-.9 5.5-2.4 7.4-4.1 2.5-2.1 5-4.2 8.4-4.7 1.4-.2 2.8 0 4 .7 3.9 2.1 3.6 7.1 2.4 10.9-2.4 7.5-7.5 14.2-14.1 18.5l-37.7 10 3 19.3-9.4 9.8-.3 22.8z" fill="#6a3649"/><path d="m281.1 172.9-6.3-25.1c-2.2-9.6-8.1-17.3-15.8-22.2-14.7.7-29.3 4.7-42.3 11.6 1.7 5.2 3.2 10.8 2.4 16.2-.8 5-3.8 9.6-8 12.3l-.5 19.1 1 4.2c4.4 19.2 23.6 31.2 42.8 26.7 19.1-4.4 31.1-23.6 26.7-42.8z" fill="#f0bf9c"/><path d="m235 212.1c-9.7-1-18.8-5.4-25.6-12.3l2.1-2.1c6.4 6.4 14.9 10.4 23.8 11.4z" fill="#c7d2d7"/><path d="m224.3 190.5c-6.7-3-13.8-3.5-22.4-3.9l.1-3c7 .3 15.7.6 23.5 4.1z" fill="#c7d2d7"/><path d="m231.9 205.5c-2-5.5-3.7-11.4-5-16.8 6.2-2 11.2-6.7 14.7-10.1 4-3.8 8.9-8.4 14.3-9.1.5-.1 1-.1 1.5-.1 2.7 0 5.6.8 8.6 1.6l1.2.3c2.8.7 6.1 1.5 9.4 1.5h1.4c1.3-.1 2.6-.4 3.9-1l-.8-3.7c-4.1 1.3-8.6.4-12.8-.7s-8.5-2.5-12.8-2c-6.6.8-11.8 5.6-16.6 10.1s-10.1 9.3-16.7 9.9c1.4 6.9 3.6 14.5 6 21.3 2.9 8 11 12.6 19.2 11.2-8.9-2.2-13.8-7.9-15.5-12.4z" fill="#fff"/><path d="m281.9 171.9c-1.3.5-2.6.9-3.9 1-.5 0-.9 0-1.4 0-3.3 0-6.6-.8-9.4-1.5l-1.2-.4c-3-.8-5.9-1.6-8.6-1.6-.5 0-1 0-1.5.1-5.4.6-10.4 5.3-14.3 9.1-3.5 3.3-8.5 8-14.7 10.1 1.3 5.5 3 11.3 5 16.8 1.6 4.5 6.5 10.2 15.4 12.6.8-.1 1.5-.3 2.3-.5l12.3-3.8c15.5-4.8 24.7-20.8 21.2-36.6z" fill="#81d3cf"/><path d="m230.7 149.3c-4.1 1.5-7 5-8.1 9l20.2-7.6c-3.5-2.2-7.9-2.9-12.1-1.4z" fill="#6a3649"/><path d="m267 142.9c3.4.1 6.4 2.4 8.3 5.9l-16.9-.5c2.1-3.4 5.2-5.5 8.6-5.4z" fill="#6a3649"/><path d="m241.7 164c0 1.7-1.4 3-3 3-1.7 0-3-1.4-3-3 0-1.7 1.4-3 3-3 1.7-.1 3 1.3 3 3z" fill="#422c4f"/><path d="m271.2 157.8c.1 1.7-1 3.1-2.3 3.2-1.4.1-2.5-1.2-2.6-2.9s1-3.1 2.3-3.2c1.4-.1 2.5 1.2 2.6 2.9z" fill="#422c4f"/><circle cx="202.6" cy="194" fill="#f0bf9c" r="12"/><circle cx="202.6" cy="194" fill="#eba588" r="6.9"/><path d="m190.6 154.8c-3.1-8.5 1.5-17.7 9.9-20.7 5.3-1.9 10.4-4.7 15-8.1 9.1-6.8 16.5-15.5 23.8-24.3 1.9-2.3 3.8-4.6 6.2-6.2.2-.2.5-.3.8-.4-.6.1-1.1.4-1.6.6-1.8.9-3.3 2.4-4.7 3.9-12.3 12.3-26.9 27.2-43.3 33.7-8 3.2-11.7 12.4-8 20.2l6.1 12.9z" fill="#8e5a61"/><path d="m278.2 222.9-9.4-.8c-3.7-.3-7 2.1-7.9 5.8l-4.7 20.4 2.8.3c6 .7 11.5-3.4 12.6-9.4l1-5.4z" fill="#e78882"/><path d="m269.8 240.9-3-6.1c-1.1-2.3-.6-5.1 1.4-6.7l8.6-7.1c3.3-2.7 7.6-3.8 11.7-2.9l18.5 4 11.1 34.9-18 16.2c-1.7 1.5-3.9 2.4-6.2 2.3l-6.2-.2c-2.8-.1-5.2-1.8-6.3-4.3l-1.6-3.9-1.3-.3c-2.6-.5-4.6-2.7-4.9-5.3l-.8-6.4c-2.3-.2-4.3-1.6-5.1-3.8l-1.1-2.8c-1-2.6-.1-5.5 2.2-7z" fill="#eba588"/><path d="m269.8 240.9 16.9-13.4-5.5 2.5c-4.3 2-8 5.2-10.5 9.3z" fill="#e78882"/><path d="m272.7 255.2 23.7-5.4-5.4 2.7c-4.7 2.4-10 3.4-15.2 3z" fill="#e78882"/><path d="m279.7 267.1h16.7l-2.8.8c-4.5 1.3-9.3 1-13.6-.7z" fill="#e78882"/><path d="m299.2 275.7c14.3 39.2 42.8 69.4 73.9 78.3l23.7 6.8 15.5-5.6-4.1-11.3 2.4-3.5c18.1-26.9 20.5-68.4 6.3-107.5l-33.9-93.1-117.7 42.8z" fill="#852d70"/><path d="m348.6 115.9-20.6 7.5-15.5 5.6-36.1 13.2c6.5 17.7 1.5 35.8-11 40.4l117.6-42.8c-12.5 4.5-27.9-6.2-34.4-23.9z" fill="#ba3770"/><path d="m364.1 110.3-72.3 26.3c6.5 17.7 1.5 35.8-11 40.4l33.9 93.1c14.3 39.2 42.8 69.4 73.9 78.3l23.7 6.8 13.8-20.4c18.1-26.9 20.5-68.4 6.3-107.5l-33.9-93.1c-12.5 4.5-27.9-6.2-34.4-23.9z" fill="#df4268"/><path d="m415.3 233.4-30.8-84.5c-12.4-.6-24.7-8.8-32.6-22l-46.5 16.9c2.4 15.2-1.7 29.4-10.8 37.8l30.8 84.5c12.9 35.4 39 63.4 66.4 71.3l11.7 3.4 6.8-10.1c15.9-23.7 17.9-61.9 5-97.3z" fill="#ba3770"/><path d="m358.3 124.5-6.4 2.3c7.9 13.2 20.2 21.4 32.6 22l6.4-2.3c-12.4-.6-24.6-8.8-32.6-22z" fill="#852d70"/><path d="m415.3 233.4c12.9 35.4 10.9 73.6-5 97.3l-6.8 10.1 4.1 1.2 9.1-13.6c15.9-23.7 17.9-61.9 5-97.3l-30.8-84.5-6.4 2.3z" fill="#852d70"/><path d="m390.1 206.4-18.4 6.7-9-24.6-21.4 7.8 9 24.6-18.4 6.7 7.8 21.4 18.4-6.7 8.9 24.6 21.4-7.8-8.9-24.6 18.3-6.7z" fill="#c7d2d7"/><path d="m396 204.2-18.3 6.7-9-24.6-21.4 7.8 9 24.6-18.4 6.7 7.8 21.4 18.3-6.7 9 24.6 21.4-7.8-9-24.6 18.4-6.7z" fill="#fff"/></g><path d="m556.7 342.3c-.9-2.8-2.3-5.5-4.5-7.1-2.2-1.5-5.2-1.4-6.7.8-1.1 1.8-1 4.4-.2 6.5.1.3.3.7.5 1 1.1 2-.1 4.6-2.4 4.9-4.6.6-9.1.1-13.1-2-.7-2.5-1.7-5-2.8-7.3 1.1-2.6 3.1-4.8 5.5-6.4 1.2-.8 2.8-.2 3.2 1.2 0 .2.1.3.2.5.4 1.2 1 2.5 2 3.1 1.5 1 3.3.2 4-1.3s.5-3.4 0-5.1c-.7-2.6-2-5.2-3.7-7.3-1.2-1.5-2.6-2.8-4.3-3.3-1.6-.4-3.5.3-3.8 2-.3 1.3.4 2.8 1.3 3.9.2.2.3.4.5.5 1.1 1 .9 2.8-.4 3.4-2.6 1.4-5.5 2-8.4 1.7-1.9-2.9-4.1-5.7-6.6-8.1.3-3.8 1.8-7.3 4.1-10.4 1.2-1.6 3.7-1.6 4.8.1.1.2.3.4.5.6 1.1 1.4 2.5 2.8 4.2 3.2 2.4.6 4.4-1.3 4.6-3.6s-1-4.7-2.5-6.8c-2.2-3.1-5.1-5.8-8.4-7.9-2.2-1.4-4.8-2.5-7.2-2.3s-4.4 2-4.1 4.4c.3 1.8 1.8 3.6 3.6 4.6.3.2.6.3.9.4 1.9.7 2.5 3.2 1.1 4.7-2.7 2.9-6 5.2-9.8 6.1-2.8-1.9-5.7-3.6-8.9-4.9-.7-2.3-.6-4.8.1-7.1.4-1.2 1.7-1.7 2.8-1 .1.1.3.2.4.2.9.6 2 1.1 3 .9 1.5-.2 2.2-1.7 1.9-3-.4-1.3-1.5-2.4-2.8-3.3-1.9-1.3-4.1-2.3-6.4-2.7-1.6-.3-3.2-.4-4.5.2s-2.1 2.1-1.4 3.4c.5 1 1.8 1.7 3 1.9h.6c1.2 0 2.1 1.3 1.6 2.5-1 2.3-2.5 4.4-4.6 5.7-3.2-1-6.6-1.6-10-2-2.2-3.1-3.3-6.8-3.5-10.6-.1-2 1.8-3.6 3.8-3 .2.1.5.1.7.2 1.7.3 3.7.5 5.2-.3 2.2-1.1 2.5-3.9 1.2-5.7-1.3-1.9-3.8-2.9-6.2-3.6-3.7-1-7.7-1.2-11.5-.6-2.6.4-5.3 1.2-6.9 2.9-1.7 1.7-2.1 4.4-.3 6 1.4 1.3 3.7 1.6 5.7 1.2.3-.1.7-.2 1-.3 1.9-.7 4 .8 3.9 2.9-.2 4-1.3 7.8-3.6 11-4 .4-7.8 1.2-11.5 2.4-.6-.8-1.2-1.8-1.6-2.8-.5-1.1.3-2.4 1.5-2.5.2 0 .3 0 .5-.1 1.1-.2 2.2-.5 2.9-1.2 1-1.1.7-2.7-.5-3.5-1.1-.8-2.7-.9-4.3-.8-2.3.2-4.6.9-6.7 2-1.4.8-2.7 1.8-3.4 3.1-.6 1.3-.3 2.9 1.1 3.5 1 .4 2.4.1 3.5-.5.2-.1.3-.2.5-.4 1-.8 2.4-.4 2.8.8.3 1.1.6 2.2.6 3.4-4.3 1.7-8.3 3.9-11.9 6.5-2.7-.8-5.1-2.4-7-4.5-1.1-1.2-.7-3.1.7-3.8.2-.1.4-.2.5-.3 1.2-.7 2.5-1.6 3.1-2.8.8-1.8-.4-3.7-2.2-4.1-1.8-.5-3.8.1-5.7 1-2.8 1.3-5.3 3.2-7.4 5.5-1.4 1.6-2.6 3.4-2.8 5.3s1 3.8 2.9 3.8c1.5.1 3.1-.9 4.1-2.2.2-.2.3-.4.5-.7.8-1.4 2.9-1.5 3.9-.2 1.8 2.4 3.1 5.1 3.4 8-3 2.9-5.7 6.2-8 9.8-1.4-.3-2.8-.7-4.2-1.4-1.3-.6-1.5-2.3-.5-3.3.1-.1.2-.3.4-.4.8-.9 1.6-2 1.7-3.2.1-1.7-1.4-2.9-3-2.7-1.6.1-3.1 1.2-4.3 2.5-1.9 1.9-3.4 4.2-4.4 6.7-.7 1.7-1.1 3.6-.7 5.2s1.9 2.8 3.5 2.3c1.2-.4 2.2-1.7 2.7-3 .1-.2.1-.5.2-.7.3-1.4 1.9-2.1 3.1-1.3 1.3.8 2.5 1.9 3.5 3-1.8 3.4-3.3 7.1-4.4 10.9-3.4 1.6-7.3 2.1-11.1 1.6-2-.2-3.2-2.4-2.3-4.2.1-.2.2-.5.3-.7.6-1.7 1.2-3.5.7-5.2-.7-2.4-3.4-3.2-5.4-2.2-2.1 1-3.5 3.2-4.6 5.5-1.6 3.5-2.5 7.3-2.6 11.2-.1 2.6.3 5.4 1.6 7.3 1.4 2 4 2.8 5.9 1.3 1.5-1.1 2.2-3.4 2.2-5.4 0-.3 0-.7-.1-1-.4-2 1.5-3.8 3.5-3.3 3.9.9 7.5 2.7 10.2 5.4-.1 1.4-.2 2.7-.2 4.1 0 3 .3 5.9.7 8.8-1.4.8-2.9 1.3-4.4 1.7-1.6.4-3-.9-2.9-2.5 0-.2 0-.4 0-.6 0-1.4-.1-2.9-.9-4-1.2-1.6-3.4-1.5-4.6-.2-1.3 1.3-1.8 3.3-1.9 5.3-.3 3 .1 6.1 1.1 9 .7 2 1.7 3.9 3.2 5s3.7 1 4.7-.6c.8-1.2.7-3.1.1-4.6-.1-.2-.2-.5-.4-.7-.8-1.4.1-3.2 1.7-3.4 1.7-.2 3.5-.2 5.2.1.9 3.6 2.1 7 3.7 10.2-2.5 4.1-8.4 8.8-11.7 11-1.7 1.1-4 .2-4.5-1.7-.1-.2-.1-.5-.2-.7-.6-1.7-1.4-3.5-2.8-4.4-2.1-1.4-4.6-.3-5.6 1.8s-.7 4.7 0 7.2c1 3.7 2.8 7.2 5.2 10.3 1.6 2.1 3.7 3.9 6 4.6 2.3.6 4.9-.4 5.4-2.7.4-1.8-.5-4-1.8-5.5-.2-.3-.5-.5-.7-.7-1.6-1.3-1.3-3.9.5-4.8 3.7-1.9 11.2-4.8 16.1-4.7 1.9 2.4 4 4.7 6.2 6.8-.5 1.6-1.3 3-2.4 4.4-.9 1.2-2.7 1.2-3.6-.1-.1-.2-.2-.3-.3-.4-.8-1-1.8-2-3.1-2.3-1.8-.4-3.3 1-3.4 2.6-.1 1.7.7 3.5 1.8 5 1.6 2.3 3.8 4.3 6.2 5.8 1.7 1 3.5 1.8 5.3 1.7s3.3-1.5 3-3.3c-.2-1.4-1.3-2.6-2.7-3.4-.2-.1-.4-.2-.7-.3-1.4-.5-1.9-2.4-.8-3.5 1.2-1.3 2.6-2.4 4.1-3.3 3.4 2.6 7.1 4.9 11.1 6.7.6 2.7.4 5.6-.4 8.3-.5 1.6-2.3 2.2-3.6 1.3-.2-.1-.3-.2-.5-.3-1.2-.7-2.6-1.4-4-1.2-2 .2-3 2.2-2.5 3.9s2 3.2 3.7 4.4c2.5 1.7 5.4 3 8.4 3.6 2.1.4 4.3.5 6-.3s2.8-2.7 1.9-4.4c-.7-1.3-2.3-2.2-3.9-2.4-.3 0-.5-.1-.8-.1-1.6 0-2.8-1.7-2.1-3.2 1.1-2.7 2.9-5.2 5.2-6.9 4.1 1.2 8.5 1.9 13 2 .3 1 .5 2.1.6 3.2.1 1.2-1.1 2.2-2.3 1.8-.1 0-.3-.1-.4-.1-1.1-.2-2.2-.3-3.2.2-1.3.7-1.5 2.3-.8 3.5.8 1.1 2.3 1.8 3.8 2.2 2.2.6 4.6.7 7 .4 1.6-.2 3.2-.7 4.2-1.7s1.3-2.7.2-3.6c-.8-.8-2.2-.9-3.4-.7-.2 0-.4.1-.6.2-1.2.4-2.4-.5-2.4-1.7.1-1.2.2-2.3.6-3.4 3.7-.1 7.3-.6 10.8-1.3 4 2.5 6.9 6.4 8.8 10.8 1 2.2-.5 4.7-3 4.9-.3 0-.6.1-.9.1-2.1.3-4.3.9-5.7 2.4-2 2.1-1.3 5.3.9 6.9 2.2 1.5 5.4 1.7 8.4 1.5 4.5-.4 9-1.8 13.1-4 2.7-1.5 5.4-3.5 6.6-6 1.2-2.6.5-5.7-2.1-6.8-2-.8-4.7-.2-6.8 1-.3.2-.7.4-1 .7-1.9 1.6-4.8.7-5.5-1.6-1.5-4.7-1.8-9.7-.3-14.3 2.8-1.4 5.5-3.1 7.9-5 1.7.9 3.2 2.1 4.6 3.5 1.1 1.2.7 3.1-.7 3.8-.2.1-.4.2-.5.3-1.2.7-2.5 1.6-3.1 2.8-.8 1.8.4 3.7 2.2 4.1 1.8.5 3.8-.1 5.7-1 2.8-1.3 5.3-3.2 7.4-5.5 1.4-1.6 2.6-3.4 2.8-5.3s-1-3.8-2.9-3.8c-1.5-.1-3.1.9-4.1 2.2-.2.2-.3.4-.5.7-.8 1.4-2.9 1.5-3.9.2-1.3-1.6-2.2-3.4-2.8-5.3 2.7-2.5 5.2-5.3 7.4-8.4 3.8-.4 7.5.5 11 2.2 1.8.9 2.2 3.3.8 4.8-.2.2-.3.4-.5.6-1.2 1.3-2.3 2.9-2.4 4.7-.1 2.5 2.1 4.1 4.3 3.9 2.3-.2 4.4-1.8 6.2-3.6 2.7-2.7 4.9-6 6.3-9.6 1-2.4 1.6-5.1 1-7.5-.6-2.3-2.8-4-5.1-3.3-1.8.6-3.2 2.4-3.9 4.3-.1.3-.2.6-.3 1-.4 2-2.7 3-4.5 1.9-3.4-2.1-6.1-5-7.7-8.6 1.5-3.3 2.7-6.8 3.5-10.5 1.6-.3 3.3-.4 5-.2 1.5.2 2.4 1.7 1.7 3.1-.1.2-.2.3-.2.5-.5 1.2-.9 2.6-.5 3.8.5 1.8 2.5 2.3 4 1.6s2.6-2.4 3.4-4.1c1.2-2.6 1.9-5.4 1.9-8.3.1-1.9-.2-4-1.2-5.4s-2.9-2.1-4.3-1c-1.1.8-1.6 2.5-1.6 4 0 .2 0 .5.1.8.3 1.5-1.1 2.8-2.6 2.5-1.7-.4-3.4-1-4.9-1.9.3-2.4.5-4.9.5-7.4 0-1.1 0-2.2-.1-3.3 3-3.2 7-5.2 11.3-6.3 2.2-.5 4.3 1.3 4.1 3.5v.8c0 2 .1 4.2 1.3 5.7 1.6 2.2 4.7 2.1 6.5.3s2.5-4.7 2.7-7.6c.1-4.4-.4-8.9-1.8-12.9z" fill="#adbf53"/><g fill="#7ca566"><path d="m469.1 324.7c.3 1.9-1.2 3.8-3.2 5.8-1 1-2.2 2.1-3.5 3.1-1.3 1.1-2.7 2.2-4.1 3.4s-2.8 2.4-4.1 3.4c-1.3 1.1-2.6 2-3.7 2.9-2.3 1.6-4.5 2.8-6.3 2.1-1.7-.6-2.7-3.1-2-6.8.3-1.8 1.1-3.9 2.4-6s3-4.1 5.1-5.9c2.2-1.8 4.5-3.1 6.8-4 2.3-.8 4.4-1.2 6.3-1.2 3.7 0 6 1.4 6.3 3.2z"/><path d="m443.6 378.7c-1.4.4-3.1-.6-4.6-2.9s-2.7-5.9-2.8-9.9c-.1-4.1.9-7.7 2.3-10 1.4-2.4 3.1-3.5 4.5-3.1s2.3 2.1 2.8 4.4.8 5.3.9 8.5 0 6.2-.5 8.5-1.2 4.1-2.6 4.5z"/><path d="m483.8 400.4c.2 1.3-1.1 2.7-3.4 3.6-2.3 1-5.7 1.4-9.4.8s-6.8-2.1-8.7-3.7-2.6-3.4-2.1-4.5c.6-1.2 2.3-1.7 4.4-1.8 2.2-.1 4.9.2 7.8.6 2.9.5 5.6 1.1 7.6 1.9 2.2.8 3.7 1.8 3.8 3.1z"/><path d="m509.2 356.9c2.5 3.4-2.4 11.4-11 17.8s-17.7 8.9-20.2 5.4c-2.5-3.4 2.4-11.4 11-17.8s17.6-8.8 20.2-5.4z"/><path d="m470.7 347c1.5.7 2.2 2.8 2.4 5.6s-.1 6.3-.8 10.1-1.6 7.2-2.7 9.7c-1.1 2.6-2.5 4.3-4.2 4.4s-3.3-1.6-4.3-4.5c-1.1-2.9-1.4-7.2-.6-11.7s2.6-8.4 4.7-10.8c1.9-2.5 4-3.5 5.5-2.8z"/><path d="m463.8 388.8c-.4.6-1.4.9-2.8.4-1.4-.4-3.1-1.5-4.5-3.2s-2.1-3.6-2.2-5.1.3-2.4 1-2.7c.7-.2 1.6.3 2.5 1.1s1.9 1.9 2.9 3.2 1.9 2.5 2.5 3.5c.7 1.2 1 2.1.6 2.8z"/><path d="m459.7 344.6c1 1 0 3.8-1.9 6.6s-4.2 4.8-5.5 4.2-1-3.9 1.2-7.1 5.2-4.7 6.2-3.7z"/><path d="m498.8 336.4c-.5 1.4-2.3 2-4.7 2.4-2.4.3-5.3.3-8.5 0-3.2-.2-6.1-.7-8.4-1.3-2.3-.7-3.9-1.6-4.3-3-.3-1.4.9-3 3.3-4.3s6.1-2.1 10.1-1.8 7.5 1.6 9.8 3.3c2.2 1.5 3.2 3.3 2.7 4.7z"/><path d="m496.2 322.1c-.3.7-1.3 1-2.5 1.1-1.3.1-2.8 0-4.5-.2s-3.2-.4-4.4-.8-2.1-.9-2.3-1.6.5-1.6 1.8-2.3 3.3-1.1 5.5-.8c2.2.2 4 1 5.2 2 1.1 1 1.5 2 1.2 2.6z"/><path d="m517.6 352.3c-1.3.1-2.6-1-3.8-2.6-1.3-1.6-2.6-3.7-4-6s-2.7-4.4-3.5-6.3c-.8-1.8-1.3-3.5-.6-4.6s2.5-1.3 4.9-.4c1.2.5 2.5 1.2 3.7 2.3s2.4 2.5 3.4 4.1 1.7 3.3 2.1 4.9.5 3.1.4 4.4c-.2 2.5-1.3 4-2.6 4.2z"/><path d="m510.3 386.1c-.7-.8-.5-2.1 0-3.7s1.3-3.4 2.1-5.3c.9-2 1.7-3.8 2.5-5.2s1.7-2.4 2.8-2.4c1 0 2 1.1 2.4 3.1s.2 4.8-1 7.5c-1.2 2.8-3.2 4.8-5 5.8-1.7 1-3.1 1-3.8.2z"/><path d="m502.1 392.5c.6.5.6 1.6-.1 2.9-.6 1.3-2 2.8-3.8 3.9s-3.8 1.6-5.2 1.6c-1.5 0-2.4-.5-2.6-1.2s.4-1.6 1.3-2.5 2.2-1.8 3.7-2.7 2.9-1.6 4-2.1c1.1-.3 2.1-.4 2.7.1z"/><path d="m502 349.2c.2 2.4-4.7 4.8-10.9 4.8-6.3 0-11.2-2.3-11-4.7s5.1-3.9 10.9-4c5.9.1 10.8 1.5 11 3.9z"/><path d="m499.8 382.7c.8.8.6 2.5-.7 4.3s-3.8 3.8-6.9 4.9c-3.2 1.1-6.3 1.1-8.5.5s-3.4-1.8-3.3-2.9c.1-1.2 1.3-2.1 2.9-3 1.7-.9 3.8-1.7 6.1-2.5s4.5-1.5 6.3-1.9c1.8-.3 3.3-.3 4.1.6z"/><path d="m454.6 396.6c-.6.8-1.9 1-3.7.5-1.7-.5-3.8-1.8-5.5-3.6-1.8-1.9-2.9-4-3.4-5.7-.4-1.7-.2-3.1.7-3.6.9-.6 2.1-.2 3.5.6s3 2.1 4.5 3.7 2.7 3.2 3.5 4.7c.7 1.3 1 2.6.4 3.4z"/></g><path d="m501.6 394.1c.5 2.5-.4 5.2-2.9 7.8-2.5 2.5-6.7 4.8-12.3 5.9-2.8.6-5.9.8-9.3.7-3.3-.2-6.9-.7-10.6-1.8-7.3-2.1-15.1-6.4-21.6-13-6.4-6.6-10.6-14.5-12.5-21.9-1-3.7-1.5-7.3-1.6-10.7s.2-6.5.9-9.2c1.2-5.6 3.6-9.7 6.1-12.1 2.6-2.5 5.3-3.3 7.8-2.7 2.5.5 4.7 2.3 6.6 4.6s3.8 5.1 5.8 8c3.8 5.9 8.4 12.5 13.6 17.9 5.3 5.4 11.7 10.1 17.6 14 2.9 2 5.7 3.9 7.9 5.9 2.3 1.9 4 4 4.5 6.6z" fill="#4d8c84" opacity=".3"/><path d="m475.4 125c-2.6-.1-5.4.3-7.4 1.6-2 1.4-2.8 4-1.4 5.9 1.1 1.5 3.4 2.2 5.4 2.2.3 0 .7 0 1-.1 2.1-.4 3.8 1.5 3.4 3.6-.9 4-2.8 7.8-5.7 10.5-2.4-.1-4.7-.1-7.1.1-1.9-1.7-3.1-4.1-3.7-6.6-.3-1.3.7-2.5 2-2.3h.5c1.1 0 2.4-.1 3.3-.7 1.3-.9 1.2-2.7.2-3.8-1-1-2.7-1.4-4.3-1.6-2.4-.2-5 .1-7.3.9-1.6.5-3.2 1.3-4.1 2.6s-.8 3 .5 3.8c1 .6 2.5.6 3.7.1.2-.1.4-.2.6-.3 1.2-.7 2.6.1 2.8 1.4.3 2.6 0 5.3-1.2 7.6-3.1.7-6.1 1.7-8.9 3-3.1-1.4-5.7-3.8-7.6-6.7-1-1.5-.2-3.6 1.6-4.1.2-.1.4-.1.7-.2 1.5-.5 3.1-1.3 4-2.5 1.2-1.9.3-4.2-1.6-5-1.9-.9-4.3-.6-6.5 0-3.3.9-6.5 2.5-9.3 4.7-1.9 1.5-3.6 3.3-4.1 5.4-.6 2.1.4 4.4 2.5 4.8 1.6.4 3.6-.4 5-1.6.2-.2.4-.4.7-.7 1.2-1.4 3.5-1.2 4.3.5 1.7 3.2 2.5 6.7 2.2 10.2-2.5 1.8-4.8 3.8-6.9 6-2.2-.1-4.2-1-6-2.3-.9-.7-.9-2 0-2.6.1-.1.2-.2.3-.2.8-.6 1.5-1.4 1.7-2.3.3-1.3-.7-2.4-1.9-2.5s-2.5.5-3.7 1.3c-1.7 1.2-3.2 2.8-4.3 4.6-.8 1.2-1.3 2.6-1.2 3.9s1.1 2.4 2.4 2.2c1-.1 1.9-1 2.5-2 .1-.2.2-.3.2-.5.4-1.1 1.7-1.4 2.6-.6 1.7 1.5 2.9 3.5 3.4 5.6-1.8 2.4-3.4 5.1-4.8 7.9-3.3.9-6.8.7-10.1-.3-1.8-.5-2.5-2.6-1.4-4.1.1-.2.3-.4.4-.6.8-1.4 1.6-3 1.4-4.5-.3-2.2-2.5-3.3-4.5-2.8s-3.7 2.3-5 4.2c-2 2.8-3.4 6.1-4.1 9.5-.5 2.3-.6 4.8.3 6.8s3.1 3.1 5 2.1c1.5-.8 2.5-2.6 2.8-4.5.1-.3.1-.6.1-.9 0-1.9 1.9-3.1 3.7-2.4 3.3 1.4 6.2 3.5 8.2 6.4-.9 3.5-1.4 7-1.5 10.5-.9.3-1.9.4-2.8.5-1.1.1-1.9-1-1.7-2.1 0-.1.1-.3.1-.4.2-1 .3-2-.1-2.9-.6-1.2-2.1-1.4-3.1-.7s-1.6 2.1-2 3.4c-.5 2-.7 4.2-.4 6.3.2 1.4.7 2.9 1.6 3.8s2.4 1.1 3.3.2c.7-.8.9-2 .7-3.1 0-.2-.1-.4-.2-.5-.4-1.1.5-2.2 1.6-2.1 1 0 2.1.2 3 .5.1 4.1.7 8.2 1.8 12.1-1.5 2-3.6 3.5-6 4.6-1.4.6-2.9-.3-3-1.8 0-.2 0-.4-.1-.5-.2-1.3-.6-2.6-1.5-3.5-1.3-1.2-3.2-.8-4.2.6-.9 1.3-1.1 3.3-.9 5.1.2 2.7 1.1 5.5 2.4 7.9.9 1.7 2.1 3.3 3.7 4s3.5.3 4.2-1.3c.5-1.2.1-2.9-.6-4.2-.1-.2-.3-.4-.4-.6-1-1.1-.4-2.9 1-3.4 2.6-.8 5.3-1 7.8-.4 1.6 3.5 3.5 6.8 5.8 9.8-.7 1.1-1.5 2.2-2.5 3.1-.9.9-2.4.6-3-.6-.1-.1-.1-.3-.2-.4-.5-1-1.2-2-2.2-2.4-1.4-.6-2.9.3-3.2 1.7-.4 1.4.1 3 .8 4.4 1 2.2 2.5 4.2 4.3 5.8 1.2 1.1 2.7 2 4.2 2.2s2.9-.8 3-2.3c0-1.2-.7-2.4-1.7-3.2-.2-.1-.3-.3-.5-.4-1.1-.7-1.2-2.2-.2-3 1.1-.9 2.3-1.5 3.6-2 2.3 2.6 5 5 7.9 7.1.3 3.4-.5 6.8-2 9.9-.8 1.7-3 2-4.3.7-.2-.2-.3-.3-.5-.5-1.2-1.1-2.7-2.1-4.2-2.2-2.2-.1-3.7 1.9-3.6 3.9.2 2 1.6 4 3.2 5.6 2.4 2.4 5.4 4.4 8.7 5.7 2.2.9 4.6 1.4 6.7.9s3.6-2.5 3-4.6c-.5-1.6-2.2-2.9-3.9-3.5-.3-.1-.6-.2-.9-.2-1.8-.3-2.7-2.4-1.7-4 1.9-3 4.6-5.5 7.8-7 1.1.5 2.3 1 3.5 1.4 2.5.9 5.1 1.6 7.7 2.1.2 1.4.2 2.8.1 4.3-.2 1.5-1.7 2.3-3 1.7-.2-.1-.3-.1-.5-.2-1.2-.5-2.5-.8-3.7-.5-1.7.5-2.3 2.4-1.6 3.9s2.3 2.5 3.9 3.3c2.5 1.1 5.2 1.8 8 1.9 1.9.1 3.8-.2 5.2-1.2s2-2.8 1-4.2c-.8-1.1-2.4-1.6-3.8-1.5-.2 0-.5 0-.7.1-1.5.2-2.7-1.1-2.4-2.5.3-1.5.9-3 1.7-4.4 3.3.3 6.6.3 9.8 0 2.7 3.4 4.9 9.8 5.7 13.3.4 1.8-1 3.4-2.9 3.3-.2 0-.5 0-.7 0-1.6 0-3.4.1-4.6 1-1.8 1.3-1.7 3.8-.2 5.3 1.4 1.4 3.8 2 6.1 2.2 3.4.3 7-.1 10.3-1.2 2.3-.7 4.5-1.9 5.7-3.6 1.2-1.8 1.2-4.2-.7-5.4-1.4-.9-3.5-.8-5.2-.2-.3.1-.6.2-.8.4-1.6.9-3.7-.1-3.9-2-.5-3.8-.6-10.9 1-15.1 2.7-.8 5.2-1.9 7.7-3.2 1.2.9 2.2 2.1 3 3.4.7 1.1.2 2.6-1.2 3-.2 0-.3.1-.5.1-1.1.4-2.3.9-2.9 1.9-.9 1.4-.2 3.1 1.2 3.7s3.2.4 4.8 0c2.5-.7 4.8-1.9 6.8-3.5 1.4-1.1 2.6-2.4 3.1-4 .4-1.5-.3-3.2-1.8-3.6-1.2-.3-2.6.3-3.7 1.2-.2.1-.3.3-.5.5-.9 1.1-2.6.9-3.2-.4-.7-1.4-1.3-2.9-1.5-4.5 3.3-2.1 6.3-4.5 9.1-7.3 2.5.3 4.9 1.4 6.9 2.9 1.2.9 1.1 2.6-.1 3.5-.1.1-.3.2-.4.3-1 .8-2 1.8-2.3 3-.4 1.7.9 3.2 2.6 3.3 1.6.1 3.4-.7 4.9-1.8 2.2-1.6 4.2-3.7 5.7-6 1-1.6 1.8-3.4 1.6-5.2-.1-1.7-1.5-3.2-3.2-3-1.3.2-2.6 1.3-3.3 2.6-.1.2-.2.4-.3.7-.5 1.4-2.3 1.8-3.4.8-2-1.8-3.5-4-4.3-6.5 2.3-3.1 4.2-6.6 5.7-10.4 1 .1 1.9.2 2.9.5 1.1.3 1.5 1.6.9 2.5-.1.1-.2.2-.2.3-.5.8-1 1.8-.9 2.7.2 1.3 1.5 2 2.7 1.7s2.2-1.4 3-2.5c1.2-1.7 2-3.7 2.5-5.8.3-1.4.4-2.9-.2-4.1-.5-1.2-1.9-1.9-3-1.3-.9.5-1.5 1.6-1.7 2.7v.6c0 1.1-1.2 1.9-2.2 1.5s-1.9-.9-2.7-1.5c1.1-3.2 1.8-6.4 2.2-9.5 3.4-2.6 7.5-3.9 11.8-4.1 2.2-.1 3.8 1.9 3.3 4-.1.3-.1.5-.2.8-.4 1.9-.6 4 .3 5.6 1.2 2.4 4.1 2.7 6.1 1.3s3.1-4 3.8-6.7c1-3.9 1.3-8.2.7-12.3-.4-2.8-1.3-5.6-3.1-7.4s-4.7-2.2-6.4-.3c-1.3 1.5-1.7 3.9-1.3 6.1.1.4.2.7.3 1.1.7 2.1-.9 4.3-3.1 4.2-4.5-.2-8.8-1.5-12.2-4.1-.3-2.8-.9-5.6-1.7-8.3 1.3-1.2 2.8-2.1 4.4-2.8 1.4-.6 2.9.3 3 1.8 0 .2 0 .4.1.5.2 1.3.6 2.6 1.5 3.5 1.3 1.2 3.2.8 4.2-.6.9-1.3 1.1-3.3.9-5.1-.2-2.7-1.1-5.5-2.4-7.9-.9-1.7-2.1-3.3-3.7-4s-3.5-.3-4.2 1.3c-.5 1.2-.2 2.9.6 4.2.1.2.3.4.4.6 1 1.1.4 2.9-1 3.4-1.8.6-3.6.8-5.4.8-1.3-3.1-2.9-6.1-4.8-8.9.8-3.3 2.8-6.2 5.3-8.6 1.3-1.3 3.5-.8 4.3.8.1.2.2.4.3.6.8 1.4 1.8 2.9 3.2 3.5 2 .9 4.1-.5 4.7-2.4.5-2-.2-4.3-1.1-6.4-1.5-3.1-3.6-6-6.2-8.3-1.8-1.6-3.9-2.9-6-3.1s-4.2 1.1-4.3 3.3c-.1 1.7 1.1 3.5 2.5 4.6.2.2.5.4.8.5 1.6.9 1.7 3.2.3 4.4-2.9 2.2-6.2 3.6-9.7 3.9-2.3-2.3-4.9-4.4-7.8-6.2.2-1.5.7-2.9 1.4-4.3.6-1.2 2.2-1.5 3.2-.5.1.1.2.2.4.3.9.8 2 1.5 3.1 1.6 1.6.1 2.8-1.4 2.6-2.9-.1-1.5-1.2-2.9-2.4-4.1-1.8-1.8-4-3.2-6.4-4.2-1.6-.6-3.4-1.1-5-.7-1.5.4-2.7 1.8-2.2 3.4.4 1.2 1.6 2.1 2.9 2.6.2.1.4.1.7.2 1.4.2 2 1.8 1.3 3-.9 1.3-1.9 2.6-3.1 3.5-1.9-1-4-1.9-6.1-2.7-.9-.3-1.9-.6-2.8-.9-1.8-3.5-2.3-7.5-1.8-11.5.2-2.1 2.4-3.2 4.3-2.4.2.1.5.2.7.3 1.7.6 3.6 1.2 5.2.7 2.4-.7 3.2-3.4 2.2-5.4-1-2.1-3.2-3.6-5.6-4.7-4.2-1.7-8.1-2.6-12-2.7z" fill="#adbf53"/><path d="m433.5 193.7c1.7.3 2.8 2.2 3.9 4.5.5 1.2 1.1 2.5 1.6 3.9s1.1 3 1.6 4.6c.6 1.6 1.1 3.1 1.6 4.6.5 1.4.9 2.8 1.3 4 .7 2.5 1 4.7-.1 5.9-1 1.3-3.5 1.3-6.4-.4-1.5-.8-2.9-2.2-4.3-3.9s-2.6-3.8-3.4-6.2-1.2-4.8-1.3-7c0-2.2.3-4.2.9-5.7 1.1-3.1 3-4.6 4.6-4.3z" fill="#7ca566"/><path d="m471.3 232.1c0 1.3-1.5 2.4-3.9 3s-5.8.5-9.3-.7-6.2-3.1-7.8-5.1c-1.6-1.9-2-3.7-1.3-4.7.8-1.1 2.5-1.3 4.6-1s4.7 1 7.5 1.9 5.2 1.9 7.1 3 3.2 2.3 3.1 3.6z" fill="#7ca566"/><path d="m502.2 204.7c1.1.3 1.9 1.7 2 4s-.6 5.3-2.2 8.2-3.9 5.1-5.8 6.2c-2 1.1-3.7 1.2-4.5.4-.8-.9-.7-2.4-.2-4.3.6-1.9 1.6-4.1 3-6.4 1.3-2.3 2.6-4.4 3.9-5.9 1.3-1.6 2.6-2.5 3.8-2.2z" fill="#7ca566"/><ellipse cx="478.1" cy="186.6" fill="#7ca566" rx="6.9" ry="17.5" transform="matrix(.9581 -.2864 .2864 .9581 -33.4034 144.7575)"/><path d="m452.8 199.3c1-1.1 3.1-1 5.5-.3s5.3 2.1 8.3 3.8 5.6 3.6 7.4 5.3c1.8 1.8 2.9 3.5 2.4 4.9-.4 1.4-2.4 2.3-5.2 2.3s-6.5-1-10.1-3.1-6.3-4.8-7.7-7.3c-1.4-2.4-1.6-4.5-.6-5.6z" fill="#7ca566"/><path d="m486.1 218.1c.4.5.3 1.5-.5 2.5-.8 1.1-2.2 2.2-4.1 2.8s-3.7.6-5 .3c-1.3-.4-2-1-1.9-1.7 0-.7.7-1.3 1.7-1.8s2.2-1 3.6-1.5 2.7-.9 3.8-1c1.1-.2 2-.2 2.4.4z" fill="#7ca566"/><path d="m447.4 207.9c1.2-.6 3.2 1.2 5 3.7s2.8 5 1.8 5.9c-.9.9-3.6-.4-5.6-3.2-2-2.9-2.3-5.9-1.2-6.4z" fill="#7ca566"/><path d="m452.5 172.2c1 .9 1 2.6.6 4.7-.5 2.1-1.4 4.6-2.6 7.3s-2.5 5-3.7 6.7c-1.3 1.7-2.6 2.8-3.9 2.7-1.3-.2-2.3-1.7-2.6-4.2-.3-2.4.1-5.8 1.6-9.1s3.7-5.9 5.8-7.3c2-1.4 3.9-1.6 4.8-.8z" fill="#7ca566"/><path d="m439.7 170c.5.5.5 1.4.2 2.5s-.8 2.4-1.5 3.8-1.4 2.6-2 3.5c-.7.9-1.4 1.5-2.1 1.4s-1.2-.9-1.4-2.2.1-3.1 1-4.9 2.1-3.1 3.3-3.8c1-.7 2-.8 2.5-.3z" fill="#7ca566"/><path d="m471.8 161.2c-.3 1.1-1.6 1.9-3.4 2.4-1.8.6-3.9 1-6.3 1.5s-4.6.9-6.4 1.1c-1.8.1-3.3 0-4.1-.9-.7-.9-.3-2.5 1.2-4.3.8-.9 1.8-1.7 3.1-2.4s2.8-1.3 4.5-1.7c1.7-.3 3.3-.4 4.8-.2s2.8.5 3.8 1c2.2 1 3.1 2.4 2.8 3.5z" fill="#7ca566"/><path d="m498.2 177.8c-.9.3-2-.2-3.1-1.1-1.2-.9-2.5-2.1-3.9-3.5-1.4-1.3-2.7-2.6-3.6-3.8-.9-1.1-1.5-2.2-1.2-3.1s1.5-1.4 3.3-1.1c1.8.2 4.1 1.3 6.1 3.2s3.1 4.2 3.3 6c.4 1.9 0 3.1-.9 3.4z" fill="#7ca566"/><path d="m501.1 186.8c.6-.3 1.5 0 2.4 1s1.8 2.5 2.2 4.5c.4 1.9.2 3.7-.2 4.9-.5 1.2-1.2 1.9-1.8 1.9-.7-.1-1.2-.8-1.7-1.8-.5-1.1-.8-2.4-1.1-3.9s-.5-2.9-.5-4.1c-.1-1.3.1-2.2.7-2.5z" fill="#7ca566"/><path d="m464.4 173.5c2.1.5 2.6 5.4.7 10.7s-5.4 8.7-7.4 7.8-1.8-5.5 0-10.5c1.8-4.9 4.6-8.6 6.7-8z" fill="#7ca566"/><path d="m492.1 185.6c.9-.4 2.3.3 3.4 2 1.2 1.7 2.1 4.4 2 7.4 0 3-1 5.7-2.2 7.3-1.2 1.7-2.6 2.3-3.5 1.9-1-.4-1.4-1.7-1.6-3.4s-.3-3.7-.2-6c0-2.2.1-4.3.4-5.9.2-1.6.7-2.9 1.7-3.3z" fill="#7ca566"/><path d="m489.9 228.3c.5.8.3 2-.7 3.2-1 1.3-2.7 2.6-4.8 3.6-2.1.9-4.3 1.3-5.9 1.1s-2.7-.8-2.9-1.7.5-1.9 1.6-2.8 2.7-1.9 4.5-2.7 3.6-1.3 5-1.5c1.5-.1 2.7 0 3.2.8z" fill="#7ca566"/><path d="m488.5 224.8c.4 2.3-.3 4.7-2.6 7s-6 4.3-11.1 5.3c-2.5.5-5.3.7-8.4.6-3-.2-6.3-.6-9.6-1.6-6.6-1.9-13.6-5.8-19.5-11.7-5.8-6-9.5-13-11.3-19.7-.9-3.3-1.3-6.6-1.4-9.6 0-3 .2-5.8.8-8.3 1.1-5 3.2-8.7 5.5-11 2.3-2.2 4.8-3 7-2.5 2.3.5 4.2 2.1 6 4.1 1.7 2.1 3.4 4.6 5.2 7.2 3.5 5.4 7.5 11.2 12.3 16.1s10.6 9.1 15.9 12.6c2.6 1.8 5.1 3.6 7.1 5.3 2.1 2 3.7 3.9 4.1 6.2z" fill="#4d8c84" opacity=".3"/><path d="m428.6 63.4c-1.1-.7-2.4-1.2-3.6-1.1s-2.2 1-2 2.2c.1.9.9 1.8 1.8 2.3.1.1.3.1.5.2 1 .3 1.3 1.6.6 2.3-1.4 1.5-3.1 2.7-5 3.2-1-.6-2-1.2-3.1-1.7-.4-1.2-.4-2.5 0-3.8.2-.6.9-.9 1.4-.5.1 0 .1.1.2.1.5.3 1.1.5 1.6.5.8-.1 1.2-.9 1-1.6s-.8-1.3-1.5-1.7c-1-.7-2.2-1.2-3.4-1.4-.8-.2-1.7-.2-2.4.1s-1.1 1.1-.7 1.8c.3.5.9.9 1.6 1h.3c.7 0 1.1.7.9 1.3-.5 1.2-1.3 2.3-2.3 3-1.5-.4-3-.7-4.6-.8-1-1.4-1.5-3-1.6-4.7-.1-.9.8-1.6 1.7-1.4.1 0 .2.1.3.1.8.1 1.7.2 2.3-.1 1-.5 1.1-1.7.5-2.6-.6-.8-1.7-1.3-2.8-1.6-1.7-.4-3.4-.5-5.1-.2-1.2.2-2.3.6-3.1 1.3-.7.8-.9 2-.1 2.7.6.6 1.7.7 2.5.5.1 0 .3-.1.4-.1.9-.3 1.8.3 1.8 1.3-.1 1.8-.5 3.5-1.5 4.9-1.5.2-3 .5-4.4.9-.9-.6-1.6-1.4-2-2.4-.2-.5.1-1.1.7-1.1h.2c.5-.1 1-.2 1.3-.6.5-.5.3-1.2-.2-1.6-.5-.3-1.2-.4-1.9-.3-1 .1-2.1.4-3 .9-.6.3-1.2.8-1.5 1.4s-.1 1.3.5 1.5c.5.2 1.1 0 1.6-.2.1 0 .2-.1.2-.2.4-.4 1.1-.2 1.3.4.4 1.1.4 2.2.1 3.3-1.4.6-2.7 1.4-4 2.3-1.6-.4-3.1-1.3-4.3-2.6-.6-.7-.4-1.7.4-2.1.1 0 .2-.1.3-.2.7-.4 1.4-.9 1.7-1.6.4-1-.3-2-1.2-2.3-1-.2-2.1.1-3.1.6-1.5.7-2.9 1.8-4.1 3.1-.8.9-1.4 1.9-1.5 3s.6 2.1 1.6 2.1c.8 0 1.7-.5 2.3-1.3.1-.1.2-.2.3-.4.5-.8 1.6-.9 2.2-.2 1.1 1.4 1.8 3 2 4.8-1.2 1.3-2.3 2.7-3.2 4.2-.5-.1-.9-.3-1.3-.5-.5-.2-.6-.9-.2-1.3 0 0 .1-.1.1-.2.3-.4.6-.8.6-1.3 0-.7-.6-1.1-1.2-1s-1.2.5-1.7 1c-.7.7-1.3 1.6-1.7 2.6-.3.7-.4 1.4-.2 2s.8 1.1 1.4.9c.5-.2.9-.7 1-1.2 0-.1 0-.2.1-.3.1-.5.7-.8 1.2-.5.4.3.8.6 1.2.9-1 1.8-1.7 3.7-2.1 5.7-1.1.5-2.4.7-3.7.5-.7-.1-1.2-.8-.9-1.5 0-.1.1-.2.1-.2.2-.6.4-1.3.2-1.9-.3-.8-1.2-1.1-1.9-.8-.7.4-1.2 1.2-1.6 2-.6 1.2-.9 2.6-.9 4 0 .9.1 1.9.6 2.6s1.4 1 2.1.5c.5-.4.8-1.2.7-1.9 0-.1 0-.2 0-.4-.1-.7.5-1.4 1.2-1.2 1.3.3 2.5.8 3.5 1.7-.2 1.9-.1 3.8.2 5.6-.6.3-1.2.6-1.8.7-.6.2-1.2-.3-1.1-1 0-.1 0-.2 0-.2 0-.6-.1-1.2-.4-1.6-.5-.6-1.3-.6-1.8 0-.5.5-.7 1.3-.7 2.1-.1 1.2.1 2.4.5 3.5.3.8.7 1.5 1.3 1.9s1.5.4 1.8-.3c.3-.5.3-1.2 0-1.8 0-.1-.1-.2-.1-.3-.3-.6 0-1.3.7-1.4s1.4-.1 2.1 0c.4 1.7.9 3.4 1.7 5-.7 1.5-1.8 2.8-3.3 3.8-.8.5-1.8.1-2-.7 0-.1-.1-.2-.1-.3-.3-.7-.6-1.5-1.3-1.9-.9-.6-2.1-.1-2.5.8s-.3 2.1 0 3.2c.5 1.6 1.3 3.2 2.4 4.5.7.9 1.7 1.7 2.7 2s2.2-.2 2.4-1.3c.2-.8-.2-1.8-.8-2.5-.1-.1-.2-.2-.3-.3-.7-.6-.6-1.7.2-2.2 1.6-.8 3.3-1.3 5-1.1.4.5.7 1 1.1 1.4.9 1 1.8 1.9 2.8 2.8-.2.7-.6 1.3-1 1.9s-1.3.6-1.7 0c-.1-.1-.1-.1-.2-.2-.4-.5-.9-1-1.5-1.1-.9-.2-1.6.5-1.6 1.3-.1.8.4 1.6.9 2.4.8 1.1 1.8 2 3 2.7.8.5 1.7.8 2.5.8.8-.1 1.6-.7 1.4-1.6-.1-.7-.7-1.2-1.3-1.6-.1-.1-.2-.1-.3-.1-.7-.2-.9-1.1-.4-1.7s1.1-1.1 1.8-1.5c1.3.9 2.8 1.7 4.2 2.4.4 2.1-.3 5.4-.7 7.1-.3.9-1.3 1.2-2 .7-.1-.1-.2-.1-.3-.2-.7-.4-1.5-.8-2.2-.7-1.1.1-1.6 1.3-1.4 2.2.3 1 1.2 1.8 2.1 2.4 1.4 1 3.1 1.6 4.7 2 1.2.2 2.4.3 3.3-.2 1-.5 1.5-1.5 1-2.5-.4-.7-1.3-1.2-2.2-1.3-.1 0-.3 0-.5 0-.9 0-1.6-.9-1.2-1.8.7-1.7 2.4-4.9 4.1-6.3 1.3.3 2.7.4 4.1.5.3.7.4 1.4.5 2.2 0 .7-.6 1.2-1.2 1-.1 0-.2 0-.2-.1-.6-.1-1.2-.2-1.7.1-.7.4-.8 1.3-.4 1.9s1.3 1 2.1 1.2c1.2.3 2.5.4 3.8.2.9-.1 1.7-.4 2.3-1s.7-1.5.1-2c-.5-.4-1.2-.5-1.9-.4-.1 0-.2.1-.3.1-.6.2-1.3-.3-1.3-.9 0-.8.2-1.6.4-2.3 1.9-.1 3.8-.4 5.7-1 1 .7 1.8 1.8 2.3 2.9.3.7-.1 1.4-.9 1.5-.1 0-.2 0-.3 0-.6.1-1.3.3-1.7.7-.6.6-.4 1.6.3 2.1s1.6.5 2.5.4c1.3-.1 2.7-.6 3.9-1.2.8-.5 1.6-1.1 1.9-1.8.4-.8.1-1.7-.7-2-.6-.2-1.4-.1-2 .3-.1.1-.2.1-.3.2-.6.5-1.4.2-1.7-.5-.4-1.3-.5-2.6-.3-3.8 1.7-.8 3.4-1.8 5-3.1.4.3.8.6 1.1.9.4.4.3 1-.2 1.3-.1 0-.1.1-.2.1-.4.2-.8.5-1 1-.3.6.2 1.2.8 1.4s1.3-.1 1.9-.4c.9-.5 1.8-1.1 2.5-1.9.5-.5.9-1.2.9-1.8s-.3-1.3-1-1.3c-.5 0-1 .3-1.4.8-.1.1-.1.1-.2.2-.3.5-1 .5-1.3.1s-.6-.8-.8-1.3c1.2-1.1 2.3-2.3 3.2-3.6 2.1-.3 4.2.1 6.1 1.1 1 .5 1.2 1.7.4 2.5-.1.1-.2.2-.3.3-.6.7-1.2 1.6-1.2 2.5-.1 1.3 1.1 2.2 2.3 2 1.2-.1 2.3-1 3.3-1.9 1.4-1.5 2.5-3.2 3.3-5.1.5-1.3.8-2.7.5-4-.3-1.2-1.5-2.1-2.7-1.7-.9.3-1.7 1.3-2 2.3-.1.2-.1.3-.1.5-.2 1.1-1.4 1.6-2.3 1.1-1.9-1.2-3.4-2.8-4.3-4.7.5-1.3.9-2.6 1.2-4 .8-.2 1.7-.2 2.6-.1.7.1 1.2.8.9 1.5 0 .1-.1.2-.1.2-.2.6-.4 1.3-.2 1.9.3.8 1.2 1.1 1.9.8.7-.4 1.2-1.2 1.6-2 .6-1.2.9-2.6.9-4 0-.9-.1-1.9-.6-2.6s-1.4-1-2.1-.5c-.5.4-.8 1.2-.7 1.9v.4c.1.7-.5 1.4-1.2 1.2-.9-.2-1.8-.5-2.5-1 .2-1.7.2-3.3.1-5 1.2-1.2 2.7-2 4.4-2.4.9-.2 1.7.5 1.6 1.4v.3c0 .8.1 1.7.5 2.3.7.9 1.9.8 2.6.1s1-1.9 1.1-3c.1-1.7-.1-3.5-.7-5.1-.4-1.1-1-2.2-1.8-2.8-.9-.6-2.1-.5-2.7.4-.4.7-.4 1.7 0 2.6.1.1.1.3.2.4.5.8 0 1.8-.9 2-1.8.3-3.5.1-5.1-.6-.5-1.6-1.1-3.1-1.9-4.6.5-.6 1-1.1 1.6-1.5s1.3-.1 1.5.6c0 .1 0 .2.1.2.2.6.5 1.1 1 1.4.7.4 1.5.1 1.8-.6s.2-1.6 0-2.4c-.3-1.2-1-2.4-1.8-3.4-.5-.7-1.2-1.3-2-1.5s-1.6.2-1.8.9c-.1.6.2 1.3.6 1.8.1.1.2.2.2.2.5.4.4 1.3-.2 1.6-.7.4-1.4.6-2.2.8-.6-.9-1.2-1.8-2-2.6-.3-.4-.7-.7-1-1.1.1-1.9.8-3.8 2-5.4.6-.8 1.8-.8 2.4 0 .1.1.2.2.2.3.6.7 1.3 1.4 2.1 1.6 1.2.3 2.2-.7 2.3-1.8s-.5-2.3-1.3-3.3c-1.5-1.4-3-2.8-4.6-3.7z" fill="#adbf53"/><path d="m393.9 82.9c.6.5.7 1.6.6 2.9-.1.6-.2 1.3-.3 2.1-.1.7-.2 1.5-.4 2.4-.1.8-.3 1.6-.4 2.4-.1.7-.3 1.4-.4 2.1-.3 1.2-.7 2.2-1.5 2.5s-1.8-.3-2.7-1.7c-.4-.7-.8-1.6-.9-2.7-.2-1.1-.2-2.3 0-3.5s.6-2.4 1.1-3.3 1.1-1.7 1.8-2.3c1.3-1.2 2.5-1.4 3.1-.9z" fill="#7ca566"/><path d="m401 108.6c-.3.5-1.2.7-2.4.4s-2.6-1.2-3.8-2.5-1.9-2.9-2.1-4.1 0-2.1.6-2.4 1.4.1 2.2.7c.9.6 1.8 1.5 2.8 2.6s1.8 2.1 2.3 3c.5 1 .7 1.8.4 2.3z" fill="#7ca566"/><path d="m420.9 104.2c.4.4.4 1.2-.1 2.2s-1.5 2.1-2.9 3-2.9 1.3-4 1.3-1.9-.4-2-.9c-.2-.6.3-1.2 1-1.9s1.7-1.4 2.8-2.1 2.2-1.3 3.1-1.6 1.7-.4 2.1 0z" fill="#7ca566"/><path d="m416.8 82.1c1.9.4 2.5 4.5 1.5 9.2s-3.4 8.1-5.2 7.7c-1.9-.4-2.5-4.5-1.5-9.2 1-4.6 3.3-8.1 5.2-7.7z" fill="#7ca566"/><path d="m400.9 90c.7-.2 1.6.3 2.4 1.2.9.9 1.8 2.2 2.7 3.6.9 1.5 1.6 2.9 1.9 4.1.4 1.2.4 2.2-.1 2.7s-1.6.4-2.8-.3-2.6-2-3.6-3.8-1.5-3.6-1.6-5c0-1.3.4-2.3 1.1-2.5z" fill="#7ca566"/><path d="m410.8 106.1c.1.3-.2.7-.8 1s-1.5.4-2.4.2c-1-.2-1.7-.6-2.2-1.1s-.6-.9-.4-1.2.6-.4 1.2-.4c.5 0 1.2.1 1.9.2s1.4.3 1.9.5c.3.3.7.5.8.8z" fill="#7ca566"/><path d="m396.5 92.4c.6 0 1.1 1.3 1.3 2.8s0 2.8-.6 3-1.5-1-1.7-2.7c-.2-1.8.4-3.1 1-3.1z" fill="#7ca566"/><path d="m407.3 78.2c.2.6-.2 1.4-.9 2.2s-1.7 1.6-2.9 2.5-2.3 1.6-3.2 2c-1 .4-1.8.6-2.3.2s-.6-1.3-.1-2.4 1.5-2.5 2.9-3.5c1.5-1.1 3-1.6 4.2-1.7 1.2-.2 2.1.1 2.3.7z" fill="#7ca566"/><path d="m402.3 74.2c.1.3-.1.7-.5 1.1s-.9.8-1.6 1.3c-.6.4-1.2.8-1.7 1s-1 .3-1.2.1c-.3-.2-.3-.7-.1-1.3s.8-1.3 1.6-1.9 1.7-.8 2.3-.8c.7 0 1.1.2 1.2.5z" fill="#7ca566"/><path d="m418.3 78.1c-.4.4-1.2.4-2 .2-.9-.2-2-.5-3.1-.9s-2.2-.7-3-1.1-1.4-.8-1.5-1.4.5-1.2 1.5-1.6c.5-.2 1.2-.3 1.9-.3s1.5.1 2.3.4 1.5.6 2.1 1.1c.6.4 1.1.9 1.4 1.4.7 1 .8 1.8.4 2.2z" fill="#7ca566"/><path d="m425.7 91.7c-.5-.1-.8-.6-1.1-1.2-.3-.7-.6-1.5-.8-2.4-.3-.9-.5-1.8-.6-2.5s-.1-1.3.2-1.6 1-.2 1.7.3 1.5 1.5 1.9 2.8.3 2.5 0 3.4c-.4.8-.9 1.2-1.3 1.2z" fill="#7ca566"/><path d="m424.8 96.2c.3 0 .7.4.8 1 .2.6.1 1.5-.1 2.4-.3.9-.8 1.7-1.3 2.1s-1 .5-1.2.4c-.3-.2-.3-.6-.3-1.2.1-.6.2-1.2.5-2 .2-.7.5-1.4.8-1.9.1-.4.4-.8.8-.8z" fill="#7ca566"/><path d="m412.1 81.7c.8.7-.2 3-2.3 4.8s-4.5 2.5-5.1 1.6.6-2.8 2.5-4.5c2.1-1.8 4.2-2.7 4.9-1.9z" fill="#7ca566"/><path d="m421.1 93.6c.5.1.9.7 1 1.7s-.2 2.4-.9 3.7c-.8 1.3-1.8 2.2-2.7 2.6s-1.7.4-2 0-.2-1.1.1-1.9.8-1.7 1.3-2.6c.5-1 1.1-1.8 1.6-2.5.6-.7 1.1-1.1 1.6-1z" fill="#7ca566"/><path d="m409.9 111.5c0 .4-.4.9-1.1 1.2s-1.8.5-2.9.4-2.1-.5-2.8-.9c-.7-.5-1-1-.8-1.4.1-.4.7-.7 1.4-.8s1.6-.2 2.6-.1 1.9.3 2.5.6c.6.2 1.1.5 1.1 1z" fill="#7ca566"/><path d="m418.2 106.7c.2 1.1-.2 2.3-1.3 3.5-1.1 1.1-3 2.1-5.5 2.6-1.2.3-2.6.4-4.1.3s-3.1-.3-4.7-.8c-3.3-.9-6.7-2.9-9.6-5.8-2.9-3-4.7-6.5-5.6-9.7-.5-1.6-.7-3.3-.7-4.7 0-1.5.1-2.9.4-4.1.6-2.5 1.6-4.3 2.7-5.4 1.2-1.1 2.4-1.5 3.5-1.2 1.1.2 2.1 1 2.9 2 .9 1 1.7 2.3 2.6 3.6 1.7 2.6 3.7 5.6 6.1 8s5.2 4.5 7.8 6.3c1.3.9 2.5 1.8 3.5 2.6 1.1.7 1.8 1.6 2 2.8z" fill="#4d8c84" opacity=".3"/></svg>